<svg xmlns="http://www.w3.org/2000/svg" width="415" height="439" viewBox="0 0 415 439">
<g fill="black" stroke="none">
<path d="M 322.0,39.5 L 320.5,39.0 L 319.5,38.0 L 318.5,37.0 L 320.0,36.5 L 321.0,37.5 L 322.0,38.5 L 322.0,39.5 Z"/>
<path d="M 327.0,43.5 L 325.5,43.0 L 324.5,42.0 L 323.5,41.0 L 325.0,40.5 L 326.0,41.5 L 327.0,42.5 L 327.0,43.5 Z"/>
<path d="M 81.0,47.5 L 79.5,47.0 L 80.5,46.0 L 81.5,45.0 L 83.0,44.5 L 83.0,45.5 L 82.0,46.5 L 81.0,47.5 Z"/>
<path d="M 334.0,49.5 L 332.5,49.0 L 331.5,48.0 L 330.5,47.0 L 329.5,46.0 L 331.0,45.5 L 332.0,46.5 L 333.0,47.5 L 334.0,48.5 L 334.0,49.5 Z"/>
<path d="M 0.0,205.5 L 0.5,204.0 L 0.5,202.0 L 0.5,200.0 L 1.5,199.0 L 0.5,198.0 L 1.5,197.0 L 1.5,195.0 L 0.5,194.0 L 1.5,193.0 L 0.5,192.0 L 1.5,191.0 L 2.0,189.5 L 2.5,188.0 L 2.0,186.5 L 2.0,185.5 L 2.5,184.0 L 2.5,182.0 L 2.5,180.0 L 3.5,179.0 L 3.5,177.0 L 4.5,176.0 L 4.5,174.0 L 5.0,172.5 L 5.0,171.5 L 4.5,170.0 L 5.0,168.5 L 6.0,167.5 L 6.5,166.0 L 6.5,164.0 L 6.5,162.0 L 7.5,161.0 L 8.0,159.5 L 8.5,158.0 L 9.5,157.0 L 9.5,155.0 L 10.0,153.5 L 10.5,152.0 L 10.5,150.0 L 11.0,148.5 L 12.0,147.5 L 12.5,146.0 L 12.5,144.0 L 13.5,143.0 L 14.0,141.5 L 14.5,140.0 L 14.5,138.0 L 15.5,137.0 L 16.5,136.0 L 17.0,134.5 L 18.0,133.5 L 18.5,132.0 L 18.5,130.0 L 19.5,129.0 L 20.0,127.5 L 20.5,126.0 L 21.0,124.5 L 21.5,123.0 L 22.0,121.5 L 23.0,120.5 L 24.0,119.5 L 24.0,118.5 L 24.0,117.5 L 25.0,116.5 L 26.0,115.5 L 26.5,114.0 L 26.5,112.0 L 28.0,111.5 L 28.5,110.0 L 29.5,109.0 L 30.0,107.5 L 30.5,106.0 L 31.5,105.0 L 32.0,103.5 L 33.0,102.5 L 34.0,101.5 L 34.5,100.0 L 35.5,99.0 L 36.0,97.5 L 36.5,96.0 L 37.5,95.0 L 38.5,94.0 L 38.5,92.0 L 39.5,91.0 L 40.5,90.0 L 41.0,88.5 L 42.0,87.5 L 42.5,86.0 L 43.5,85.0 L 44.5,84.0 L 45.5,83.0 L 46.0,81.5 L 47.5,81.0 L 48.5,80.0 L 49.0,78.5 L 50.0,77.5 L 51.0,76.5 L 51.5,75.0 L 52.5,74.0 L 53.5,73.0 L 54.5,72.0 L 55.0,70.5 L 56.5,70.0 L 57.0,68.5 L 58.0,67.5 L 59.0,66.5 L 60.0,65.5 L 61.0,64.5 L 62.0,63.5 L 63.0,62.5 L 64.0,61.5 L 65.0,60.5 L 66.0,59.5 L 67.0,58.5 L 68.0,57.5 L 69.0,56.5 L 70.0,55.5 L 70.5,54.0 L 72.0,53.5 L 73.0,52.5 L 74.0,51.5 L 75.5,52.0 L 74.5,53.0 L 73.5,54.0 L 72.5,55.0 L 71.5,56.0 L 70.5,57.0 L 69.5,58.0 L 68.5,59.0 L 67.5,60.0 L 66.5,61.0 L 65.5,62.0 L 64.5,63.0 L 63.5,64.0 L 62.5,65.0 L 61.5,66.0 L 60.5,67.0 L 59.5,68.0 L 58.5,69.0 L 58.0,70.5 L 57.0,71.5 L 56.0,72.5 L 55.0,73.5 L 54.5,75.0 L 53.5,76.0 L 52.5,77.0 L 51.5,78.0 L 51.0,79.5 L 50.0,80.5 L 49.0,81.5 L 48.5,83.0 L 47.5,84.0 L 46.5,85.0 L 45.5,86.0 L 45.0,87.5 L 44.0,88.5 L 43.5,90.0 L 42.5,91.0 L 42.0,92.5 L 41.0,93.5 L 40.5,95.0 L 39.5,96.0 L 38.5,97.0 L 38.0,98.5 L 37.5,100.0 L 36.5,101.0 L 35.5,102.0 L 35.0,103.5 L 34.5,105.0 L 33.5,106.0 L 33.0,107.5 L 32.5,109.0 L 31.5,110.0 L 31.0,111.5 L 30.5,113.0 L 29.5,114.0 L 29.0,115.5 L 28.5,117.0 L 27.5,118.0 L 27.0,119.5 L 26.5,121.0 L 25.5,122.0 L 25.5,124.0 L 24.5,125.0 L 24.0,126.5 L 23.5,128.0 L 22.5,129.0 L 22.5,131.0 L 21.5,132.0 L 21.5,134.0 L 20.5,135.0 L 20.0,136.5 L 19.5,138.0 L 19.0,139.5 L 18.5,141.0 L 18.0,142.5 L 17.5,144.0 L 17.0,145.5 L 16.5,147.0 L 16.0,148.5 L 15.5,150.0 L 15.5,152.0 L 14.5,153.0 L 14.5,155.0 L 13.5,156.0 L 13.5,158.0 L 13.0,159.5 L 12.5,161.0 L 12.5,163.0 L 12.0,164.5 L 11.5,166.0 L 11.5,168.0 L 10.5,169.0 L 10.5,171.0 L 10.5,173.0 L 10.0,174.5 L 9.5,176.0 L 9.5,178.0 L 9.5,180.0 L 8.5,181.0 L 8.5,183.0 L 8.5,185.0 L 8.5,187.0 L 7.5,188.0 L 7.5,190.0 L 7.5,192.0 L 7.5,194.0 L 7.5,196.0 L 7.0,197.5 L 6.5,199.0 L 6.5,201.0 L 6.5,203.0 L 6.5,205.0 L 6.5,207.0 L 6.5,209.0 L 6.5,211.0 L 6.5,213.0 L 6.5,215.0 L 6.5,217.0 L 6.5,219.0 L 6.5,221.0 L 6.5,223.0 L 6.5,225.0 L 7.0,226.5 L 7.5,228.0 L 7.5,230.0 L 7.5,232.0 L 7.5,234.0 L 7.5,236.0 L 8.0,237.5 L 8.5,239.0 L 8.5,241.0 L 8.5,243.0 L 9.0,244.5 L 9.5,246.0 L 9.5,248.0 L 9.5,250.0 L 10.5,251.0 L 10.5,253.0 L 10.5,255.0 L 11.5,256.0 L 11.5,258.0 L 12.0,259.5 L 12.5,261.0 L 12.5,263.0 L 13.5,264.0 L 13.5,266.0 L 14.0,267.5 L 14.5,269.0 L 14.5,271.0 L 15.5,272.0 L 15.5,274.0 L 16.5,275.0 L 16.5,277.0 L 17.5,278.0 L 17.5,280.0 L 18.5,281.0 L 18.5,283.0 L 19.5,284.0 L 19.5,286.0 L 20.5,287.0 L 21.0,288.5 L 21.5,290.0 L 22.0,291.5 L 22.5,293.0 L 23.5,294.0 L 24.0,295.5 L 24.5,297.0 L 25.5,298.0 L 25.5,300.0 L 26.5,301.0 L 27.0,302.5 L 27.5,304.0 L 28.5,305.0 L 29.0,306.5 L 29.5,308.0 L 30.5,309.0 L 31.0,310.5 L 31.5,312.0 L 32.5,313.0 L 33.0,314.5 L 33.5,316.0 L 34.5,317.0 L 35.5,318.0 L 36.0,319.5 L 36.5,321.0 L 37.5,322.0 L 38.5,323.0 L 39.0,324.5 L 39.5,326.0 L 40.5,327.0 L 41.0,328.5 L 42.0,329.5 L 42.5,331.0 L 43.5,332.0 L 44.5,333.0 L 45.0,334.5 L 46.0,335.5 L 46.5,337.0 L 47.5,338.0 L 48.5,339.0 L 49.0,340.5 L 50.0,341.5 L 51.0,342.5 L 51.5,344.0 L 52.5,345.0 L 53.5,346.0 L 54.5,347.0 L 55.5,348.0 L 56.0,349.5 L 57.0,350.5 L 58.0,351.5 L 59.0,352.5 L 59.5,354.0 L 60.5,355.0 L 61.5,356.0 L 62.5,357.0 L 63.5,358.0 L 64.5,359.0 L 65.5,360.0 L 66.5,361.0 L 67.5,362.0 L 68.0,363.5 L 69.0,364.5 L 70.0,365.5 L 71.0,366.5 L 72.0,367.5 L 73.0,368.5 L 74.0,369.5 L 75.5,370.0 L 76.5,371.0 L 77.5,372.0 L 78.5,373.0 L 79.5,374.0 L 80.5,375.0 L 81.5,376.0 L 82.5,377.0 L 84.0,377.5 L 85.0,378.5 L 86.0,379.5 L 87.0,380.5 L 88.0,381.5 L 89.5,382.0 L 90.5,383.0 L 91.5,384.0 L 93.0,384.5 L 94.0,385.5 L 95.0,386.5 L 96.5,387.0 L 97.5,388.0 L 99.0,388.5 L 100.0,389.5 L 101.0,390.5 L 102.0,391.5 L 103.5,392.0 L 105.0,392.5 L 106.0,393.5 L 107.0,394.5 L 108.5,395.0 L 109.5,396.0 L 111.0,396.5 L 112.0,397.5 L 113.5,398.0 L 115.0,398.5 L 116.0,399.5 L 117.5,400.0 L 119.0,400.5 L 120.0,401.5 L 121.5,402.0 L 123.0,402.5 L 124.0,403.5 L 125.5,404.0 L 127.0,404.5 L 128.0,405.5 L 129.5,406.0 L 131.0,406.5 L 132.5,407.0 L 134.0,407.5 L 135.0,408.5 L 137.0,408.5 L 138.0,409.5 L 140.0,409.5 L 141.0,410.5 L 142.5,411.0 L 144.0,411.5 L 145.5,412.0 L 147.0,412.5 L 148.5,413.0 L 150.0,413.5 L 151.5,414.0 L 153.0,414.5 L 154.5,415.0 L 156.0,415.5 L 158.0,415.5 L 159.0,416.5 L 161.0,416.5 L 163.0,416.5 L 164.0,417.5 L 166.0,417.5 L 167.5,418.0 L 169.0,418.5 L 171.0,418.5 L 172.5,419.0 L 174.0,419.5 L 176.0,419.5 L 178.0,419.5 L 179.0,420.5 L 181.0,420.5 L 183.0,420.5 L 185.0,420.5 L 186.0,421.5 L 188.0,421.5 L 190.0,421.5 L 192.0,421.5 L 194.0,421.5 L 196.0,421.5 L 197.5,422.0 L 199.0,422.5 L 201.0,422.5 L 203.0,422.5 L 205.0,422.5 L 207.0,422.5 L 209.0,422.5 L 211.0,422.5 L 213.0,422.5 L 215.0,422.5 L 216.0,421.5 L 218.0,421.5 L 220.0,421.5 L 222.0,421.5 L 224.0,421.5 L 226.0,421.5 L 227.0,420.5 L 229.0,420.5 L 231.0,420.5 L 233.0,420.5 L 234.0,419.5 L 236.0,419.5 L 238.0,419.5 L 239.5,419.0 L 241.0,418.5 L 243.0,418.5 L 244.5,418.0 L 246.0,417.5 L 248.0,417.5 L 249.5,417.0 L 251.0,416.5 L 253.0,416.5 L 254.0,415.5 L 256.0,415.5 L 257.5,415.0 L 259.0,414.5 L 260.5,414.0 L 262.0,413.5 L 263.5,413.0 L 265.0,412.5 L 266.5,412.0 L 268.0,411.5 L 269.5,411.0 L 271.0,410.5 L 272.0,409.5 L 274.0,409.5 L 275.0,408.5 L 277.0,408.5 L 278.0,407.5 L 279.5,407.0 L 281.0,406.5 L 282.0,405.5 L 283.5,405.0 L 285.0,404.5 L 286.0,403.5 L 288.0,403.5 L 289.0,402.5 L 290.5,402.0 L 292.0,401.5 L 293.0,400.5 L 294.5,400.0 L 295.5,399.0 L 297.0,398.5 L 298.0,397.5 L 299.5,397.0 L 301.0,396.5 L 302.0,395.5 L 303.0,394.5 L 304.5,394.0 L 306.0,393.5 L 307.0,392.5 L 308.0,391.5 L 309.5,391.0 L 310.5,390.0 L 312.0,389.5 L 313.0,388.5 L 314.0,387.5 L 315.5,387.0 L 316.5,386.0 L 318.0,385.5 L 319.0,384.5 L 320.0,383.5 L 321.0,382.5 L 322.5,382.0 L 323.5,381.0 L 324.5,380.0 L 325.5,379.0 L 327.0,378.5 L 328.0,377.5 L 329.0,376.5 L 330.0,375.5 L 331.0,374.5 L 332.0,373.5 L 333.0,372.5 L 334.5,372.0 L 335.5,371.0 L 336.5,370.0 L 337.5,369.0 L 338.5,368.0 L 339.5,367.0 L 340.5,366.0 L 341.5,365.0 L 342.5,364.0 L 343.5,363.0 L 344.5,362.0 L 345.5,361.0 L 346.5,360.0 L 347.5,359.0 L 348.5,358.0 L 349.5,357.0 L 350.5,356.0 L 351.5,355.0 L 352.0,353.5 L 353.0,352.5 L 354.0,351.5 L 355.0,350.5 L 356.0,349.5 L 356.5,348.0 L 357.5,347.0 L 358.5,346.0 L 359.5,345.0 L 360.0,343.5 L 361.0,342.5 L 362.0,341.5 L 362.5,340.0 L 363.5,339.0 L 364.5,338.0 L 365.5,337.0 L 366.0,335.5 L 367.0,334.5 L 367.5,333.0 L 368.5,332.0 L 369.5,331.0 L 370.0,329.5 L 371.0,328.5 L 371.5,327.0 L 372.5,326.0 L 373.0,324.5 L 374.0,323.5 L 374.5,322.0 L 375.5,321.0 L 376.0,319.5 L 377.0,318.5 L 377.5,317.0 L 378.5,316.0 L 379.0,314.5 L 379.5,313.0 L 380.5,312.0 L 381.0,310.5 L 381.5,309.0 L 382.5,308.0 L 383.0,306.5 L 383.5,305.0 L 384.5,304.0 L 385.0,302.5 L 385.5,301.0 L 386.5,300.0 L 387.0,298.5 L 387.5,297.0 L 388.0,295.5 L 388.5,294.0 L 389.5,293.0 L 390.0,291.5 L 390.5,290.0 L 391.0,288.5 L 391.5,287.0 L 392.5,286.0 L 392.5,284.0 L 393.5,283.0 L 393.5,281.0 L 394.5,280.0 L 394.5,278.0 L 395.5,277.0 L 395.5,275.0 L 396.5,274.0 L 396.5,272.0 L 397.5,271.0 L 397.5,269.0 L 398.0,267.5 L 398.5,266.0 L 399.0,264.5 L 399.5,263.0 L 399.5,261.0 L 400.0,259.5 L 400.5,258.0 L 400.5,256.0 L 401.5,255.0 L 401.5,253.0 L 401.5,251.0 L 402.5,250.0 L 402.5,248.0 L 402.5,246.0 L 403.5,245.0 L 403.5,243.0 L 403.5,241.0 L 403.5,239.0 L 404.5,238.0 L 404.5,236.0 L 404.5,234.0 L 404.5,232.0 L 404.5,230.0 L 405.5,229.0 L 405.5,227.0 L 405.5,225.0 L 405.5,223.0 L 405.5,221.0 L 405.5,219.0 L 405.5,217.0 L 405.5,215.0 L 405.5,213.0 L 405.5,211.0 L 405.5,209.0 L 405.5,207.0 L 405.5,205.0 L 405.5,203.0 L 405.5,201.0 L 405.5,199.0 L 405.5,197.0 L 405.5,195.0 L 405.5,193.0 L 405.0,191.5 L 404.5,190.0 L 404.5,188.0 L 404.5,186.0 L 404.5,184.0 L 404.0,182.5 L 403.5,181.0 L 403.5,179.0 L 403.5,177.0 L 402.5,176.0 L 402.5,174.0 L 402.5,172.0 L 402.0,170.5 L 401.5,169.0 L 401.5,167.0 L 400.5,166.0 L 400.5,164.0 L 400.0,162.5 L 399.5,161.0 L 399.5,159.0 L 398.5,158.0 L 398.5,156.0 L 398.0,154.5 L 397.5,153.0 L 397.5,151.0 L 396.5,150.0 L 396.5,148.0 L 395.5,147.0 L 395.5,145.0 L 395.0,143.5 L 394.5,142.0 L 394.0,140.5 L 393.5,139.0 L 393.0,137.5 L 392.5,136.0 L 391.5,135.0 L 391.5,133.0 L 390.5,132.0 L 390.0,130.5 L 389.5,129.0 L 389.0,127.5 L 388.5,126.0 L 387.5,125.0 L 387.0,123.5 L 386.5,122.0 L 385.5,121.0 L 385.5,119.0 L 384.5,118.0 L 384.0,116.5 L 383.5,115.0 L 382.5,114.0 L 382.0,112.5 L 381.5,111.0 L 380.5,110.0 L 380.0,108.5 L 379.0,107.5 L 378.5,106.0 L 377.5,105.0 L 377.0,103.5 L 376.5,102.0 L 375.5,101.0 L 374.5,100.0 L 374.0,98.5 L 373.5,97.0 L 372.5,96.0 L 371.5,95.0 L 371.0,93.5 L 370.5,92.0 L 369.5,91.0 L 368.5,90.0 L 367.5,89.0 L 367.0,87.5 L 366.0,86.5 L 365.5,85.0 L 364.5,84.0 L 363.5,83.0 L 362.5,82.0 L 362.0,80.5 L 361.0,79.5 L 360.5,78.0 L 359.5,77.0 L 358.5,76.0 L 357.5,75.0 L 356.5,74.0 L 355.5,73.0 L 355.0,71.5 L 354.0,70.5 L 353.0,69.5 L 352.0,68.5 L 351.0,67.5 L 350.5,66.0 L 349.5,65.0 L 351.0,64.5 L 351.5,66.0 L 352.5,67.0 L 353.5,68.0 L 355.0,68.5 L 355.5,70.0 L 356.5,71.0 L 357.5,72.0 L 358.5,73.0 L 359.5,74.0 L 360.5,75.0 L 361.5,76.0 L 362.0,77.5 L 363.5,78.0 L 364.0,79.5 L 365.0,80.5 L 366.0,81.5 L 366.5,83.0 L 367.5,84.0 L 368.5,85.0 L 369.5,86.0 L 370.0,87.5 L 371.0,88.5 L 372.0,89.5 L 372.5,91.0 L 373.5,92.0 L 374.0,93.5 L 375.5,94.0 L 376.0,95.5 L 377.0,96.5 L 378.0,97.5 L 378.5,99.0 L 379.5,100.0 L 380.0,101.5 L 380.5,103.0 L 381.5,104.0 L 382.0,105.5 L 382.5,107.0 L 383.5,108.0 L 384.0,109.5 L 384.5,111.0 L 385.5,112.0 L 386.0,113.5 L 387.0,114.5 L 388.0,115.5 L 389.0,116.5 L 389.5,118.0 L 390.0,119.5 L 390.5,121.0 L 391.5,122.0 L 392.0,123.5 L 392.5,125.0 L 393.0,126.5 L 394.0,127.5 L 395.0,128.5 L 395.5,130.0 L 395.5,132.0 L 396.0,133.5 L 397.0,134.5 L 397.5,136.0 L 398.0,137.5 L 398.5,139.0 L 399.0,140.5 L 400.0,141.5 L 400.0,142.5 L 400.0,143.5 L 400.5,145.0 L 401.5,146.0 L 401.5,148.0 L 402.5,149.0 L 402.5,151.0 L 403.5,152.0 L 403.5,154.0 L 404.0,155.5 L 404.5,157.0 L 405.5,158.0 L 404.5,159.0 L 405.5,160.0 L 405.5,162.0 L 406.0,163.5 L 406.5,165.0 L 406.5,167.0 L 407.5,168.0 L 408.0,169.5 L 408.5,171.0 L 408.5,173.0 L 409.0,174.5 L 409.5,176.0 L 410.0,177.5 L 410.5,179.0 L 410.5,181.0 L 411.5,182.0 L 411.5,184.0 L 411.5,186.0 L 411.5,188.0 L 412.0,189.5 L 412.5,191.0 L 412.5,193.0 L 412.5,195.0 L 412.5,197.0 L 413.0,198.5 L 413.5,200.0 L 413.5,202.0 L 413.5,204.0 L 413.5,206.0 L 413.5,208.0 L 414.0,209.5 Z"/>
<path d="M 349.0,64.5 L 348.0,63.5 L 347.0,62.5 L 346.0,61.5 L 345.0,60.5 L 344.0,59.5 L 343.0,58.5 L 342.0,57.5 L 341.0,56.5 L 341.0,55.5 L 342.5,56.0 L 343.5,57.0 L 344.5,58.0 L 345.5,59.0 L 346.5,60.0 L 347.5,61.0 L 348.5,62.0 L 349.5,63.0 L 349.0,64.5 Z"/>
<path d="M 350.0,342.5 L 348.0,342.5 L 346.0,342.5 L 344.5,342.0 L 343.5,341.0 L 343.0,339.5 L 342.5,338.0 L 341.0,337.5 L 339.0,337.5 L 337.0,337.5 L 335.0,337.5 L 333.0,337.5 L 331.0,337.5 L 329.0,337.5 L 327.0,337.5 L 325.0,337.5 L 323.0,337.5 L 321.0,337.5 L 319.0,337.5 L 317.0,337.5 L 315.0,337.5 L 313.0,337.5 L 311.0,337.5 L 309.0,337.5 L 307.0,337.5 L 305.0,337.5 L 303.0,337.5 L 301.0,337.5 L 299.0,337.5 L 297.0,337.5 L 295.0,337.5 L 293.0,337.5 L 291.0,337.5 L 289.0,337.5 L 287.0,337.5 L 285.0,337.5 L 283.0,337.5 L 281.0,337.5 L 279.0,337.5 L 277.0,337.5 L 275.0,337.5 L 273.0,337.5 L 271.0,337.5 L 269.0,337.5 L 267.0,337.5 L 265.0,337.5 L 263.0,337.5 L 261.0,337.5 L 259.0,337.5 L 257.0,337.5 L 255.0,337.5 L 253.0,337.5 L 251.0,337.5 L 249.0,337.5 L 247.0,337.5 L 245.0,337.5 L 243.0,337.5 L 241.0,337.5 L 239.0,337.5 L 237.0,337.5 L 235.0,337.5 L 233.0,337.5 L 231.0,337.5 L 229.0,337.5 L 227.0,337.5 L 225.0,337.5 L 223.0,337.5 L 221.0,337.5 L 219.0,337.5 L 217.0,337.5 L 215.0,337.5 L 213.0,337.5 L 211.0,337.5 L 209.0,337.5 L 207.0,337.5 L 205.0,337.5 L 203.0,337.5 L 201.0,337.5 L 199.0,337.5 L 197.0,337.5 L 195.0,337.5 L 193.0,337.5 L 191.0,337.5 L 189.0,337.5 L 187.0,337.5 L 185.0,337.5 L 183.0,337.5 L 181.0,337.5 L 179.0,337.5 L 177.0,337.5 L 175.0,337.5 L 173.0,337.5 L 171.0,337.5 L 169.0,337.5 L 167.0,337.5 L 165.0,337.5 L 163.0,337.5 L 161.0,337.5 L 159.0,337.5 L 157.0,337.5 L 155.0,337.5 L 153.0,337.5 L 151.0,337.5 L 149.0,337.5 L 147.0,337.5 L 145.0,337.5 L 143.0,337.5 L 141.0,337.5 L 139.0,337.5 L 137.0,337.5 L 135.0,337.5 L 133.0,337.5 L 131.0,337.5 L 129.0,337.5 L 127.0,337.5 L 125.0,337.5 L 123.0,337.5 L 121.0,337.5 L 119.0,337.5 L 117.0,337.5 L 115.0,337.5 L 113.0,337.5 L 111.0,337.5 L 109.0,337.5 L 107.0,337.5 L 105.0,337.5 L 103.0,337.5 L 101.0,337.5 L 99.0,337.5 L 97.0,337.5 L 95.0,337.5 L 93.0,337.5 L 91.0,337.5 L 89.0,337.5 L 87.0,337.5 L 85.0,337.5 L 83.0,337.5 L 81.0,337.5 L 79.0,337.5 L 77.0,337.5 L 75.0,337.5 L 73.0,337.5 L 71.0,337.5 L 69.5,338.0 L 69.5,340.0 L 68.5,341.0 L 67.0,341.5 L 66.0,342.5 L 64.0,342.5 L 63.0,341.5 L 61.0,341.5 L 60.0,340.5 L 59.0,339.5 L 58.5,338.0 L 58.0,336.5 L 57.5,335.0 L 57.5,333.0 L 57.5,331.0 L 57.5,329.0 L 57.5,327.0 L 57.5,325.0 L 57.5,323.0 L 57.5,321.0 L 57.5,319.0 L 57.5,317.0 L 57.5,315.0 L 57.5,313.0 L 57.5,311.0 L 57.5,309.0 L 57.5,307.0 L 57.5,305.0 L 57.5,303.0 L 57.5,301.0 L 57.5,299.0 L 57.5,297.0 L 57.5,295.0 L 57.5,293.0 L 57.5,291.0 L 58.5,290.0 L 58.5,288.0 L 58.5,286.0 L 59.0,284.5 L 59.5,283.0 L 59.5,281.0 L 60.5,280.0 L 60.5,278.0 L 61.5,277.0 L 61.0,275.5 L 60.0,276.5 L 59.5,275.0 L 60.5,274.0 L 61.5,274.0 L 62.5,274.0 L 63.0,272.5 L 64.0,271.5 L 64.5,270.0 L 65.5,269.0 L 66.5,268.0 L 67.5,267.0 L 68.0,265.5 L 69.0,264.5 L 70.0,263.5 L 71.0,262.5 L 71.0,261.5 L 69.0,261.5 L 67.0,261.5 L 65.0,261.5 L 63.0,261.5 L 61.0,261.5 L 59.5,261.0 L 58.0,260.5 L 57.0,259.5 L 55.5,259.0 L 54.0,258.5 L 53.0,257.5 L 52.0,256.5 L 51.0,255.5 L 50.5,254.0 L 49.5,253.0 L 49.0,251.5 L 48.5,250.0 L 48.5,248.0 L 48.5,246.0 L 48.5,244.0 L 48.5,242.0 L 48.5,240.0 L 49.0,238.5 L 49.5,237.0 L 50.5,236.0 L 51.0,234.5 L 52.0,233.5 L 53.0,232.5 L 54.0,231.5 L 55.5,231.0 L 57.0,230.5 L 58.0,229.5 L 60.0,229.5 L 62.0,229.5 L 63.5,229.0 L 62.0,228.5 L 60.0,228.5 L 60.0,227.5 L 62.0,227.5 L 64.0,227.5 L 66.0,227.5 L 68.0,227.5 L 70.0,227.5 L 72.0,227.5 L 74.0,227.5 L 75.5,228.0 L 74.0,228.5 L 72.5,229.0 L 74.0,229.5 L 76.0,229.5 L 78.0,229.5 L 79.0,230.5 L 80.5,231.0 L 82.0,231.5 L 83.0,232.5 L 84.0,233.5 L 85.0,234.5 L 86.0,233.5 L 86.5,232.0 L 86.5,230.0 L 87.0,228.5 L 87.5,227.0 L 87.5,225.0 L 87.5,223.0 L 88.5,222.0 L 88.5,220.0 L 88.0,218.5 L 87.5,220.0 L 86.5,220.0 L 86.5,218.0 L 87.5,217.0 L 88.5,217.0 L 89.5,217.0 L 89.5,215.0 L 90.5,214.0 L 90.5,212.0 L 90.5,210.0 L 91.5,209.0 L 91.5,207.0 L 92.0,205.5 L 92.5,204.0 L 92.5,202.0 L 93.5,201.0 L 93.5,199.0 L 94.0,197.5 L 94.5,196.0 L 94.5,194.0 L 95.5,193.0 L 95.5,191.0 L 96.5,190.0 L 96.5,188.0 L 97.0,186.5 L 97.5,185.0 L 98.0,183.5 L 98.5,182.0 L 99.0,180.5 L 99.5,179.0 L 99.5,177.0 L 100.5,176.0 L 101.0,174.5 L 101.5,173.0 L 102.5,172.0 L 102.5,170.0 L 103.5,169.0 L 103.5,167.0 L 104.5,166.0 L 105.0,164.5 L 105.5,163.0 L 106.5,162.0 L 107.0,160.5 L 107.5,159.0 L 108.5,158.0 L 109.0,156.5 L 110.0,155.5 L 110.5,154.0 L 111.5,153.0 L 112.5,152.0 L 113.5,151.0 L 114.0,149.5 L 115.0,148.5 L 116.0,147.5 L 117.0,146.5 L 118.0,145.5 L 119.0,144.5 L 120.0,143.5 L 121.0,142.5 L 122.5,142.0 L 123.5,141.0 L 125.0,140.5 L 126.0,139.5 L 127.0,138.5 L 128.5,138.0 L 130.0,137.5 L 131.0,136.5 L 133.0,136.5 L 134.0,135.5 L 135.5,135.0 L 137.0,134.5 L 138.5,134.0 L 140.0,133.5 L 142.0,133.5 L 142.0,132.5 L 140.5,132.0 L 142.0,131.5 L 143.5,132.0 L 145.0,132.5 L 147.0,132.5 L 149.0,132.5 L 150.0,131.5 L 152.0,131.5 L 154.0,131.5 L 156.0,131.5 L 157.0,130.5 L 159.0,130.5 L 161.0,130.5 L 163.0,130.5 L 165.0,130.5 L 166.0,129.5 L 168.0,129.5 L 170.0,129.5 L 172.0,129.5 L 174.0,129.5 L 175.5,129.0 L 174.0,128.5 L 172.0,128.5 L 170.5,128.0 L 172.0,127.5 L 174.0,127.5 L 176.0,127.5 L 177.0,128.5 L 179.0,128.5 L 181.0,128.5 L 183.0,128.5 L 185.0,128.5 L 187.0,128.5 L 189.0,128.5 L 191.0,128.5 L 193.0,128.5 L 194.0,127.5 L 196.0,127.5 L 198.0,127.5 L 200.0,127.5 L 202.0,127.5 L 204.0,127.5 L 206.0,127.5 L 208.0,127.5 L 210.0,127.5 L 212.0,127.5 L 214.0,127.5 L 216.0,127.5 L 218.0,127.5 L 220.0,127.5 L 221.5,128.0 L 223.0,128.5 L 225.0,128.5 L 227.0,128.5 L 229.0,128.5 L 231.0,128.5 L 233.0,128.5 L 235.0,128.5 L 236.0,129.5 L 238.0,129.5 L 240.0,129.5 L 242.0,129.5 L 244.0,129.5 L 246.0,129.5 L 247.0,130.5 L 249.0,130.5 L 251.0,130.5 L 253.0,130.5 L 254.5,130.0 L 256.0,129.5 L 258.0,129.5 L 259.5,130.0 L 258.0,130.5 L 256.0,130.5 L 256.0,131.5 L 258.0,131.5 L 260.0,131.5 L 261.5,132.0 L 263.0,132.5 L 265.0,132.5 L 267.0,132.5 L 268.0,133.5 L 270.0,133.5 L 272.0,133.5 L 273.0,134.5 L 275.0,134.5 L 276.0,135.5 L 278.0,135.5 L 279.0,136.5 L 280.5,137.0 L 282.0,137.5 L 283.0,138.5 L 284.5,139.0 L 286.0,139.5 L 287.0,140.5 L 288.0,141.5 L 289.5,142.0 L 290.5,143.0 L 291.5,144.0 L 292.5,145.0 L 293.5,146.0 L 294.5,147.0 L 295.5,148.0 L 296.5,149.0 L 298.0,149.5 L 298.5,151.0 L 299.5,152.0 L 300.5,153.0 L 301.5,154.0 L 302.0,155.5 L 302.5,157.0 L 303.5,158.0 L 304.0,159.5 L 305.0,160.5 L 305.5,162.0 L 306.5,163.0 L 307.0,164.5 L 307.5,166.0 L 308.0,167.5 L 308.5,169.0 L 309.5,170.0 L 309.5,172.0 L 310.5,173.0 L 310.5,175.0 L 311.5,176.0 L 311.5,178.0 L 312.5,179.0 L 312.5,181.0 L 313.5,182.0 L 313.5,184.0 L 314.5,185.0 L 314.5,187.0 L 315.0,188.5 L 315.5,190.0 L 316.0,191.5 L 316.5,193.0 L 316.5,195.0 L 317.5,196.0 L 317.5,198.0 L 318.5,199.0 L 318.5,201.0 L 318.5,203.0 L 319.5,204.0 L 319.5,206.0 L 320.5,207.0 L 320.5,209.0 L 321.0,210.5 L 321.5,212.0 L 321.5,214.0 L 322.0,215.5 L 322.5,217.0 L 322.5,219.0 L 323.5,220.0 L 323.5,222.0 L 324.0,223.5 L 325.0,222.5 L 325.5,224.0 L 325.0,225.5 L 324.5,227.0 L 324.5,229.0 L 325.0,230.5 L 325.5,232.0 L 325.5,234.0 L 326.0,235.5 L 327.0,234.5 L 328.0,233.5 L 329.0,232.5 L 330.0,231.5 L 331.5,231.0 L 333.0,230.5 L 334.0,229.5 L 336.0,229.5 L 338.0,229.5 L 340.0,229.5 L 342.0,229.5 L 344.0,229.5 L 346.0,229.5 L 348.0,229.5 L 350.0,229.5 L 352.0,229.5 L 353.5,230.0 L 355.0,230.5 L 356.5,231.0 L 357.5,232.0 L 358.5,233.0 L 359.5,234.0 L 360.5,235.0 L 361.5,236.0 L 362.0,237.5 L 362.5,239.0 L 363.0,240.5 L 363.5,242.0 L 363.5,244.0 L 363.5,246.0 L 363.5,248.0 L 363.5,250.0 L 362.5,251.0 L 362.5,253.0 L 361.5,254.0 L 360.5,255.0 L 360.0,256.5 L 359.0,257.5 L 357.5,258.0 L 356.5,259.0 L 355.0,259.5 L 354.0,260.5 L 352.5,261.0 L 351.0,261.5 L 349.0,261.5 L 347.0,261.5 L 345.0,261.5 L 343.0,261.5 L 341.0,261.5 L 339.5,262.0 L 340.5,263.0 L 341.5,264.0 L 342.5,265.0 L 343.5,266.0 L 344.5,267.0 L 345.5,268.0 L 346.5,269.0 L 347.0,270.5 L 348.0,271.5 L 348.5,273.0 L 349.5,274.0 L 350.0,275.5 L 350.5,277.0 L 351.0,278.5 L 351.5,280.0 L 352.0,281.5 L 352.5,283.0 L 352.5,285.0 L 353.0,286.5 L 353.5,288.0 L 353.5,290.0 L 353.5,292.0 L 353.5,294.0 L 353.5,296.0 L 353.5,298.0 L 353.5,300.0 L 353.5,302.0 L 353.5,304.0 L 353.5,306.0 L 353.5,308.0 L 353.5,310.0 L 353.5,312.0 L 353.5,314.0 L 353.5,316.0 L 353.5,318.0 L 353.5,320.0 L 353.5,322.0 L 353.5,324.0 L 353.5,326.0 L 353.5,328.0 L 353.5,330.0 L 353.5,332.0 L 353.5,334.0 L 353.5,336.0 L 353.5,338.0 L 353.0,339.5 L 352.0,340.5 L 351.0,341.5 L 350.0,342.5 Z"/>
<path d="M 346.5,330.0 L 346.5,328.0 L 346.5,326.0 L 346.5,324.0 L 346.5,322.0 L 346.5,320.0 L 346.5,318.0 L 346.5,316.0 L 346.5,314.0 L 346.5,312.0 L 346.5,310.0 L 346.5,308.0 L 346.5,306.0 L 346.5,304.0 L 346.5,302.0 L 346.5,300.0 L 346.5,298.0 L 346.5,296.0 L 346.5,294.0 L 346.5,292.0 L 346.5,290.0 L 346.5,288.0 L 346.5,286.0 L 345.5,285.0 L 345.5,283.0 L 345.0,281.5 L 344.5,280.0 L 343.5,280.0 L 342.0,280.5 L 342.0,279.5 L 343.0,278.5 L 343.5,277.0 L 342.5,276.0 L 342.0,274.5 L 341.0,273.5 L 340.5,272.0 L 339.5,271.0 L 338.5,270.0 L 337.5,269.0 L 337.0,267.5 L 336.0,266.5 L 334.5,266.0 L 333.5,265.0 L 332.5,264.0 L 331.0,263.5 L 330.0,262.5 L 329.0,261.5 L 327.5,261.0 L 326.0,260.5 L 324.5,260.0 L 323.5,259.0 L 323.0,257.5 L 322.5,256.0 L 322.5,254.0 L 322.5,252.0 L 322.5,250.0 L 321.5,249.0 L 321.5,247.0 L 321.5,245.0 L 321.0,243.5 L 320.5,242.0 L 320.5,240.0 L 320.0,238.5 L 319.5,237.0 L 319.5,235.0 L 319.5,233.0 L 319.0,231.5 L 318.5,230.0 L 318.0,228.5 L 317.5,227.0 L 317.5,225.0 L 317.0,223.5 L 316.5,222.0 L 316.5,220.0 L 316.0,218.5 L 315.5,217.0 L 315.5,215.0 L 314.5,214.0 L 314.5,212.0 L 314.0,210.5 L 313.5,209.0 L 313.5,207.0 L 312.5,206.0 L 312.5,204.0 L 312.5,202.0 L 311.5,201.0 L 311.5,199.0 L 310.5,198.0 L 310.5,196.0 L 309.5,195.0 L 309.5,193.0 L 309.0,191.5 L 308.5,190.0 L 308.0,188.5 L 307.5,187.0 L 307.5,185.0 L 306.5,184.0 L 306.5,182.0 L 305.5,181.0 L 305.0,179.5 L 304.5,178.0 L 304.0,176.5 L 303.5,175.0 L 303.0,173.5 L 302.5,172.0 L 301.5,171.0 L 301.5,169.0 L 300.5,168.0 L 300.0,166.5 L 299.5,165.0 L 298.5,164.0 L 298.0,162.5 L 297.5,161.0 L 296.5,160.0 L 296.0,158.5 L 295.0,157.5 L 294.0,156.5 L 293.0,155.5 L 292.5,154.0 L 291.5,153.0 L 290.5,152.0 L 289.5,151.0 L 288.5,150.0 L 287.5,149.0 L 286.5,148.0 L 285.0,147.5 L 284.0,146.5 L 283.0,145.5 L 281.5,145.0 L 280.0,144.5 L 279.0,143.5 L 277.5,143.0 L 276.0,142.5 L 275.0,141.5 L 273.0,141.5 L 272.0,140.5 L 270.0,140.5 L 269.0,139.5 L 267.0,139.5 L 265.0,139.5 L 263.5,139.0 L 262.0,138.5 L 260.0,138.5 L 258.0,138.5 L 256.5,138.0 L 255.0,137.5 L 253.0,137.5 L 251.0,137.5 L 249.0,137.5 L 247.0,137.5 L 246.0,136.5 L 244.0,136.5 L 242.0,136.5 L 240.0,136.5 L 238.0,136.5 L 237.0,135.5 L 235.0,135.5 L 233.0,135.5 L 231.0,135.5 L 229.0,135.5 L 227.0,135.5 L 225.0,135.5 L 223.0,135.5 L 221.5,135.0 L 220.0,134.5 L 218.0,134.5 L 216.0,134.5 L 214.0,134.5 L 212.0,134.5 L 210.5,135.0 L 211.5,136.0 L 210.0,136.5 L 208.0,136.5 L 206.0,136.5 L 204.0,136.5 L 202.0,136.5 L 202.0,135.5 L 204.0,135.5 L 206.0,135.5 L 206.0,134.5 L 204.0,134.5 L 202.0,134.5 L 200.0,134.5 L 198.0,134.5 L 196.0,134.5 L 194.0,134.5 L 192.0,134.5 L 190.0,134.5 L 189.0,135.5 L 187.0,135.5 L 185.0,135.5 L 183.0,135.5 L 181.0,135.5 L 179.0,135.5 L 177.0,135.5 L 175.0,135.5 L 173.5,136.0 L 172.0,136.5 L 170.0,136.5 L 168.0,136.5 L 166.0,136.5 L 164.0,136.5 L 162.5,137.0 L 161.0,137.5 L 159.0,137.5 L 157.0,137.5 L 155.5,138.0 L 154.0,138.5 L 152.0,138.5 L 150.0,138.5 L 148.5,139.0 L 147.0,139.5 L 145.0,139.5 L 143.0,139.5 L 142.0,140.5 L 140.0,140.5 L 138.5,141.0 L 137.0,141.5 L 135.5,142.0 L 134.0,142.5 L 133.0,143.5 L 131.5,144.0 L 130.0,144.5 L 129.0,145.5 L 128.0,146.5 L 126.5,147.0 L 125.5,148.0 L 124.5,149.0 L 123.0,149.5 L 122.0,150.5 L 121.0,151.5 L 120.0,152.5 L 119.0,153.5 L 118.5,155.0 L 117.5,156.0 L 116.5,157.0 L 115.5,158.0 L 115.0,159.5 L 114.5,161.0 L 113.5,162.0 L 113.0,163.5 L 112.5,165.0 L 111.5,166.0 L 111.0,167.5 L 110.5,169.0 L 109.5,170.0 L 109.5,172.0 L 108.5,173.0 L 108.5,175.0 L 107.5,176.0 L 107.5,178.0 L 106.5,179.0 L 106.0,180.5 L 105.5,182.0 L 105.0,183.5 L 104.5,185.0 L 104.0,186.5 L 103.5,188.0 L 103.0,189.5 L 102.5,191.0 L 102.5,193.0 L 101.5,194.0 L 101.5,196.0 L 100.5,197.0 L 100.5,199.0 L 100.0,200.5 L 99.5,202.0 L 99.5,204.0 L 99.0,205.5 L 98.5,207.0 L 98.5,209.0 L 97.5,210.0 L 97.5,212.0 L 97.0,213.5 L 96.5,215.0 L 96.0,216.5 L 95.5,218.0 L 95.5,220.0 L 94.5,221.0 L 94.5,223.0 L 94.5,225.0 L 94.0,226.5 L 93.5,228.0 L 93.5,230.0 L 94.5,230.0 L 96.0,229.5 L 97.5,230.0 L 96.5,231.0 L 96.0,232.5 L 95.0,233.5 L 94.0,234.5 L 93.5,233.0 L 93.0,231.5 L 92.5,233.0 L 92.5,235.0 L 92.0,236.5 L 91.5,238.0 L 91.5,240.0 L 91.5,242.0 L 91.0,243.5 L 90.5,245.0 L 91.0,246.5 L 91.5,245.0 L 92.0,243.5 L 92.5,245.0 L 92.5,247.0 L 93.5,248.0 L 93.5,250.0 L 92.5,251.0 L 92.0,252.5 L 90.5,252.0 L 90.0,250.5 L 89.5,252.0 L 89.5,254.0 L 88.5,255.0 L 88.5,257.0 L 88.0,258.5 L 87.0,259.5 L 86.0,260.5 L 84.5,261.0 L 83.0,261.5 L 82.0,262.5 L 80.5,263.0 L 79.5,264.0 L 78.5,265.0 L 77.0,265.5 L 76.0,266.5 L 75.0,267.5 L 74.0,268.5 L 73.0,269.5 L 72.5,271.0 L 71.5,272.0 L 70.5,273.0 L 70.0,274.5 L 70.0,275.5 L 71.0,274.5 L 71.5,276.0 L 70.0,276.5 L 68.5,277.0 L 67.5,278.0 L 67.5,280.0 L 66.5,281.0 L 66.5,283.0 L 65.5,284.0 L 65.5,286.0 L 65.5,288.0 L 64.5,289.0 L 64.5,291.0 L 64.5,293.0 L 64.5,295.0 L 64.5,297.0 L 64.5,299.0 L 64.5,301.0 L 64.5,303.0 L 64.5,305.0 L 64.5,307.0 L 64.5,309.0 L 64.5,311.0 L 64.5,313.0 L 64.5,315.0 L 64.5,317.0 L 64.5,319.0 L 64.5,321.0 L 64.5,323.0 L 64.5,325.0 L 64.5,327.0 L 64.5,329.0 L 65.0,330.5 L 67.0,330.5 L 69.0,330.5 L 71.0,330.5 L 73.0,330.5 L 75.0,330.5 L 77.0,330.5 L 79.0,330.5 L 81.0,330.5 L 83.0,330.5 L 85.0,330.5 L 87.0,330.5 L 89.0,330.5 L 91.0,330.5 L 93.0,330.5 L 95.0,330.5 L 97.0,330.5 L 99.0,330.5 L 101.0,330.5 L 103.0,330.5 L 105.0,330.5 L 107.0,330.5 L 109.0,330.5 L 111.0,330.5 L 113.0,330.5 L 115.0,330.5 L 117.0,330.5 L 119.0,330.5 L 121.0,330.5 L 123.0,330.5 L 125.0,330.5 L 127.0,330.5 L 129.0,330.5 L 131.0,330.5 L 133.0,330.5 L 135.0,330.5 L 137.0,330.5 L 139.0,330.5 L 139.5,329.0 L 139.5,327.0 L 138.5,327.0 L 138.5,329.0 L 137.0,329.5 L 137.0,328.5 L 137.5,327.0 L 137.5,325.0 L 138.0,323.5 L 139.0,322.5 L 140.0,323.5 L 140.5,322.0 L 141.5,321.0 L 141.5,319.0 L 142.5,318.0 L 142.5,316.0 L 143.5,315.0 L 143.5,313.0 L 144.5,312.0 L 145.5,311.0 L 146.5,310.0 L 147.0,308.5 L 147.5,307.0 L 148.5,306.0 L 149.0,304.5 L 150.0,303.5 L 150.5,302.0 L 151.5,301.0 L 152.5,300.0 L 153.5,299.0 L 154.5,298.0 L 156.0,297.5 L 157.0,296.5 L 158.5,296.0 L 160.0,295.5 L 161.5,295.0 L 163.0,294.5 L 165.0,294.5 L 166.5,294.0 L 168.0,293.5 L 170.0,293.5 L 172.0,293.5 L 174.0,293.5 L 176.0,293.5 L 178.0,293.5 L 180.0,293.5 L 182.0,293.5 L 184.0,293.5 L 186.0,293.5 L 188.0,293.5 L 190.0,293.5 L 192.0,293.5 L 194.0,293.5 L 196.0,293.5 L 198.0,293.5 L 200.0,293.5 L 202.0,293.5 L 204.0,293.5 L 206.0,293.5 L 208.0,293.5 L 210.0,293.5 L 212.0,293.5 L 214.0,293.5 L 216.0,293.5 L 218.0,293.5 L 220.0,293.5 L 222.0,293.5 L 224.0,293.5 L 226.0,293.5 L 228.0,293.5 L 230.0,293.5 L 232.0,293.5 L 234.0,293.5 L 236.0,293.5 L 238.0,293.5 L 240.0,293.5 L 242.0,293.5 L 243.5,294.0 L 245.0,294.5 L 247.0,294.5 L 249.0,294.5 L 250.0,295.5 L 252.0,295.5 L 253.0,296.5 L 254.5,297.0 L 256.0,297.5 L 257.0,298.5 L 258.0,299.5 L 259.0,300.5 L 259.5,302.0 L 260.5,303.0 L 261.0,304.5 L 262.0,305.5 L 262.5,307.0 L 264.0,307.5 L 264.5,309.0 L 265.0,310.5 L 266.5,311.0 L 267.5,312.0 L 267.5,314.0 L 268.5,315.0 L 268.5,317.0 L 269.5,318.0 L 270.0,319.5 L 270.5,321.0 L 270.5,323.0 L 271.5,324.0 L 271.5,326.0 L 272.0,327.5 L 272.5,329.0 L 273.0,330.5 L 275.0,330.5 L 277.0,330.5 L 279.0,330.5 L 281.0,330.5 L 283.0,330.5 L 285.0,330.5 L 287.0,330.5 L 289.0,330.5 L 291.0,330.5 L 293.0,330.5 L 295.0,330.5 L 297.0,330.5 L 299.0,330.5 L 301.0,330.5 L 303.0,330.5 L 305.0,330.5 L 307.0,330.5 L 309.0,330.5 L 311.0,330.5 L 313.0,330.5 L 315.0,330.5 L 317.0,330.5 L 319.0,330.5 L 321.0,330.5 L 323.0,330.5 L 325.0,330.5 L 327.0,330.5 L 329.0,330.5 L 331.0,330.5 L 333.0,330.5 L 335.0,330.5 L 337.0,330.5 L 339.0,330.5 L 341.0,330.5 L 343.0,330.5 L 345.0,330.5 L 346.5,330.0 Z"/>
<path d="M 179.0,142.5 L 177.0,142.5 L 175.0,142.5 L 173.5,142.0 L 175.0,141.5 L 177.0,141.5 L 179.0,141.5 L 179.0,142.5 Z"/>
<path d="M 296.0,261.5 L 294.5,261.0 L 294.0,259.5 L 293.0,258.5 L 291.0,258.5 L 289.0,258.5 L 287.0,258.5 L 285.0,258.5 L 283.0,258.5 L 281.0,258.5 L 279.0,258.5 L 277.0,258.5 L 275.0,258.5 L 273.0,258.5 L 271.0,258.5 L 269.0,258.5 L 267.0,258.5 L 265.0,258.5 L 263.0,258.5 L 261.0,258.5 L 259.0,258.5 L 257.0,258.5 L 255.0,258.5 L 253.0,258.5 L 251.0,258.5 L 249.0,258.5 L 247.0,258.5 L 245.0,258.5 L 243.0,258.5 L 241.0,258.5 L 239.0,258.5 L 237.0,258.5 L 235.0,258.5 L 233.0,258.5 L 231.0,258.5 L 229.0,258.5 L 227.0,258.5 L 225.0,258.5 L 223.0,258.5 L 221.0,258.5 L 219.0,258.5 L 217.0,258.5 L 215.0,258.5 L 213.0,258.5 L 211.0,258.5 L 209.0,258.5 L 207.0,258.5 L 205.0,258.5 L 203.0,258.5 L 201.0,258.5 L 199.0,258.5 L 197.0,258.5 L 195.0,258.5 L 193.0,258.5 L 191.0,258.5 L 189.0,258.5 L 187.0,258.5 L 185.0,258.5 L 183.0,258.5 L 181.0,258.5 L 179.0,258.5 L 177.0,258.5 L 175.0,258.5 L 173.0,258.5 L 171.0,258.5 L 169.0,258.5 L 167.0,258.5 L 165.0,258.5 L 163.0,258.5 L 161.0,258.5 L 159.0,258.5 L 157.0,258.5 L 155.0,258.5 L 153.0,258.5 L 151.0,258.5 L 149.0,258.5 L 147.0,258.5 L 145.0,258.5 L 143.0,258.5 L 141.0,258.5 L 139.0,258.5 L 137.0,258.5 L 135.0,258.5 L 133.0,258.5 L 131.0,258.5 L 129.0,258.5 L 127.0,258.5 L 125.0,258.5 L 123.0,258.5 L 121.0,258.5 L 119.0,258.5 L 117.0,258.5 L 115.0,258.5 L 113.0,258.5 L 111.0,258.5 L 109.0,258.5 L 107.0,258.5 L 105.0,258.5 L 103.0,258.5 L 101.5,258.0 L 100.0,257.5 L 99.0,256.5 L 98.0,255.5 L 97.5,254.0 L 97.5,252.0 L 97.5,250.0 L 97.5,248.0 L 97.0,246.5 L 96.0,247.5 L 95.0,246.5 L 93.5,246.0 L 94.5,245.0 L 94.5,243.0 L 96.0,242.5 L 97.0,241.5 L 97.5,243.0 L 98.0,244.5 L 98.5,243.0 L 98.5,241.0 L 99.0,239.5 L 99.5,238.0 L 99.5,236.0 L 99.5,234.0 L 100.0,232.5 L 100.5,231.0 L 100.5,229.0 L 99.5,229.0 L 99.0,230.5 L 98.5,229.0 L 97.5,228.0 L 98.0,226.5 L 99.0,225.5 L 100.0,224.5 L 100.5,226.0 L 101.0,227.5 L 101.5,226.0 L 101.5,224.0 L 102.5,223.0 L 102.5,221.0 L 102.5,219.0 L 103.5,218.0 L 103.5,216.0 L 103.0,214.5 L 102.0,215.5 L 101.5,214.0 L 100.5,213.0 L 100.5,211.0 L 99.5,211.0 L 99.0,212.5 L 98.5,211.0 L 99.0,209.5 L 99.5,208.0 L 99.5,206.0 L 100.5,205.0 L 101.0,203.5 L 102.5,204.0 L 102.5,206.0 L 101.5,207.0 L 102.5,208.0 L 103.0,209.5 L 103.5,211.0 L 103.5,213.0 L 104.5,213.0 L 104.5,211.0 L 105.0,209.5 L 105.5,208.0 L 105.5,206.0 L 106.5,205.0 L 106.5,203.0 L 107.0,201.5 L 107.5,200.0 L 108.0,198.5 L 108.5,197.0 L 108.5,195.0 L 109.5,194.0 L 109.5,192.0 L 110.5,191.0 L 110.5,189.0 L 111.5,188.0 L 111.5,186.0 L 112.5,185.0 L 112.5,183.0 L 113.0,181.5 L 113.5,180.0 L 114.5,179.0 L 114.5,177.0 L 115.5,176.0 L 115.5,174.0 L 116.5,173.0 L 117.0,171.5 L 117.5,170.0 L 118.0,168.5 L 118.5,167.0 L 119.5,166.0 L 120.0,164.5 L 121.0,163.5 L 121.5,162.0 L 122.5,161.0 L 123.5,160.0 L 124.0,158.5 L 125.0,157.5 L 126.0,156.5 L 127.0,155.5 L 128.0,154.5 L 129.0,153.5 L 130.5,153.0 L 131.5,152.0 L 133.0,151.5 L 134.0,150.5 L 135.0,149.5 L 137.0,149.5 L 138.0,148.5 L 139.5,148.0 L 141.0,147.5 L 143.0,147.5 L 144.5,147.0 L 146.0,146.5 L 148.0,146.5 L 150.0,146.5 L 151.0,145.5 L 153.0,145.5 L 155.0,145.5 L 157.0,145.5 L 158.0,144.5 L 160.0,144.5 L 162.0,144.5 L 164.0,144.5 L 165.5,144.0 L 167.0,143.5 L 169.0,143.5 L 171.0,143.5 L 173.0,143.5 L 175.0,143.5 L 177.0,143.5 L 179.0,143.5 L 180.0,142.5 L 182.0,142.5 L 184.0,142.5 L 186.0,142.5 L 188.0,142.5 L 190.0,142.5 L 192.0,142.5 L 194.0,142.5 L 196.0,142.5 L 198.0,142.5 L 200.0,142.5 L 202.0,142.5 L 204.0,142.5 L 206.0,142.5 L 208.0,142.5 L 210.0,142.5 L 212.0,142.5 L 214.0,142.5 L 216.0,142.5 L 218.0,142.5 L 220.0,142.5 L 222.0,142.5 L 224.0,142.5 L 226.0,142.5 L 228.0,142.5 L 230.0,142.5 L 231.0,141.5 L 233.0,141.5 L 235.0,141.5 L 237.0,141.5 L 237.0,142.5 L 235.0,142.5 L 233.5,143.0 L 235.0,143.5 L 237.0,143.5 L 239.0,143.5 L 241.0,143.5 L 243.0,143.5 L 245.0,143.5 L 246.0,144.5 L 248.0,144.5 L 250.0,144.5 L 252.0,144.5 L 254.0,144.5 L 255.0,145.5 L 257.0,145.5 L 259.0,145.5 L 261.0,145.5 L 262.0,146.5 L 264.0,146.5 L 266.0,146.5 L 268.0,146.5 L 269.0,147.5 L 271.0,147.5 L 272.5,148.0 L 274.0,148.5 L 275.0,149.5 L 276.5,150.0 L 278.0,150.5 L 279.0,151.5 L 280.5,152.0 L 281.5,153.0 L 282.5,154.0 L 283.5,155.0 L 285.0,155.5 L 286.0,156.5 L 286.5,158.0 L 287.5,159.0 L 288.5,160.0 L 289.5,161.0 L 290.5,162.0 L 291.0,163.5 L 291.5,165.0 L 292.5,166.0 L 293.0,167.5 L 293.5,169.0 L 294.5,170.0 L 294.5,172.0 L 295.5,173.0 L 296.0,174.5 L 296.5,176.0 L 297.0,177.5 L 297.5,179.0 L 298.5,180.0 L 298.5,182.0 L 299.0,183.5 L 299.5,185.0 L 300.0,186.5 L 300.5,188.0 L 301.0,189.5 L 301.5,191.0 L 301.5,193.0 L 302.5,194.0 L 302.5,196.0 L 303.5,197.0 L 303.5,199.0 L 304.5,200.0 L 304.5,202.0 L 304.5,204.0 L 305.5,205.0 L 305.5,207.0 L 306.5,208.0 L 306.5,210.0 L 307.0,211.5 L 307.5,213.0 L 307.5,215.0 L 307.5,217.0 L 308.5,218.0 L 308.5,220.0 L 309.0,221.5 L 309.5,223.0 L 309.5,225.0 L 310.5,226.0 L 310.5,228.0 L 310.5,230.0 L 311.0,231.5 L 311.5,233.0 L 311.5,235.0 L 312.0,236.5 L 312.5,238.0 L 312.5,240.0 L 313.0,241.5 L 313.5,243.0 L 313.5,245.0 L 313.5,247.0 L 314.5,248.0 L 314.5,250.0 L 314.5,252.0 L 314.5,254.0 L 313.5,255.0 L 313.0,256.5 L 311.5,257.0 L 310.5,258.0 L 309.0,258.5 L 307.0,258.5 L 305.0,258.5 L 303.0,258.5 L 301.0,258.5 L 299.0,258.5 L 297.5,259.0 L 297.0,260.5 L 296.0,261.5 Z"/>
<path d="M 307.5,251.0 L 307.5,249.0 L 307.5,247.0 L 307.5,245.0 L 307.0,243.5 L 306.5,242.0 L 306.5,240.0 L 306.0,238.5 L 305.5,237.0 L 305.5,235.0 L 305.5,233.0 L 304.5,232.0 L 304.5,230.0 L 304.0,228.5 L 303.5,227.0 L 303.5,225.0 L 303.0,223.5 L 302.5,222.0 L 302.5,220.0 L 301.5,219.0 L 301.5,217.0 L 301.5,215.0 L 300.5,214.0 L 300.5,212.0 L 300.0,210.5 L 299.5,209.0 L 299.5,207.0 L 298.5,206.0 L 298.5,204.0 L 298.0,202.5 L 297.5,201.0 L 297.0,199.5 L 296.5,198.0 L 296.5,196.0 L 295.5,195.0 L 295.5,193.0 L 294.5,192.0 L 294.5,190.0 L 294.0,188.5 L 293.5,187.0 L 292.5,187.0 L 292.0,188.5 L 291.0,187.5 L 290.5,186.0 L 292.0,185.5 L 292.5,184.0 L 292.0,182.5 L 291.5,181.0 L 291.0,179.5 L 290.5,178.0 L 289.5,177.0 L 289.5,175.0 L 288.5,174.0 L 288.0,172.5 L 287.5,171.0 L 286.5,170.0 L 286.0,168.5 L 285.5,167.0 L 284.5,166.0 L 283.5,166.0 L 282.0,166.5 L 282.0,165.5 L 283.0,164.5 L 283.0,163.5 L 282.0,162.5 L 281.0,161.5 L 280.0,160.5 L 279.0,159.5 L 278.0,158.5 L 277.0,157.5 L 275.5,157.0 L 274.0,156.5 L 273.0,155.5 L 271.5,155.0 L 270.0,154.5 L 268.0,154.5 L 267.0,153.5 L 265.0,153.5 L 263.0,153.5 L 261.5,153.0 L 260.0,152.5 L 258.0,152.5 L 256.0,152.5 L 254.5,152.0 L 253.0,151.5 L 251.0,151.5 L 249.0,151.5 L 247.0,151.5 L 245.0,151.5 L 244.0,150.5 L 242.0,150.5 L 240.0,150.5 L 238.0,150.5 L 236.0,150.5 L 234.0,150.5 L 232.0,150.5 L 230.0,150.5 L 229.0,151.5 L 228.0,150.5 L 227.0,151.5 L 225.0,151.5 L 224.5,150.0 L 223.0,149.5 L 221.0,149.5 L 219.0,149.5 L 217.0,149.5 L 215.0,149.5 L 213.0,149.5 L 211.0,149.5 L 209.0,149.5 L 207.0,149.5 L 205.0,149.5 L 203.0,149.5 L 201.0,149.5 L 199.0,149.5 L 197.0,149.5 L 195.0,149.5 L 193.0,149.5 L 191.0,149.5 L 189.0,149.5 L 187.0,149.5 L 185.0,149.5 L 183.0,149.5 L 181.0,149.5 L 179.0,149.5 L 177.5,150.0 L 176.0,150.5 L 174.0,150.5 L 172.0,150.5 L 170.0,150.5 L 168.0,150.5 L 166.0,150.5 L 165.0,151.5 L 163.0,151.5 L 161.0,151.5 L 159.0,151.5 L 157.0,151.5 L 155.5,152.0 L 154.0,152.5 L 152.0,152.5 L 150.0,152.5 L 149.0,153.5 L 147.0,153.5 L 145.0,153.5 L 143.5,154.0 L 142.0,154.5 L 140.5,155.0 L 139.0,155.5 L 138.0,156.5 L 136.5,157.0 L 135.0,157.5 L 134.0,158.5 L 133.0,159.5 L 132.0,160.5 L 130.5,161.0 L 130.0,162.5 L 129.0,163.5 L 128.0,164.5 L 127.5,166.0 L 128.5,167.0 L 128.0,168.5 L 126.0,168.5 L 125.0,169.5 L 124.5,171.0 L 123.5,172.0 L 123.0,173.5 L 122.5,175.0 L 122.0,176.5 L 121.5,178.0 L 121.0,179.5 L 120.5,181.0 L 119.5,182.0 L 119.5,184.0 L 118.5,185.0 L 118.5,187.0 L 117.5,188.0 L 117.5,190.0 L 116.5,191.0 L 116.5,193.0 L 116.0,194.5 L 115.5,196.0 L 115.5,198.0 L 114.5,199.0 L 114.5,201.0 L 115.5,201.0 L 116.0,199.5 L 116.5,201.0 L 116.0,202.5 L 115.5,204.0 L 114.5,204.0 L 114.0,202.5 L 113.5,204.0 L 113.0,205.5 L 112.5,207.0 L 112.5,209.0 L 111.5,210.0 L 111.5,212.0 L 111.5,214.0 L 110.5,215.0 L 110.5,217.0 L 110.0,218.5 L 109.5,220.0 L 109.5,222.0 L 108.5,223.0 L 108.5,225.0 L 108.5,227.0 L 107.5,228.0 L 107.5,230.0 L 107.0,231.5 L 106.5,233.0 L 106.5,235.0 L 106.5,237.0 L 105.5,238.0 L 105.5,240.0 L 105.5,242.0 L 106.0,243.5 L 106.5,242.0 L 107.0,240.5 L 107.5,242.0 L 108.0,243.5 L 108.0,244.5 L 107.0,245.5 L 106.0,246.5 L 105.5,245.0 L 104.5,245.0 L 104.5,247.0 L 104.5,249.0 L 103.5,250.0 L 104.0,251.5 L 106.0,251.5 L 108.0,251.5 L 110.0,251.5 L 112.0,251.5 L 114.0,251.5 L 116.0,251.5 L 118.0,251.5 L 120.0,251.5 L 122.0,251.5 L 124.0,251.5 L 126.0,251.5 L 128.0,251.5 L 130.0,251.5 L 131.5,251.0 L 133.0,250.5 L 134.0,249.5 L 135.0,248.5 L 136.5,248.0 L 138.0,247.5 L 139.0,246.5 L 141.0,246.5 L 142.5,246.0 L 143.5,245.0 L 143.5,243.0 L 144.0,241.5 L 144.5,240.0 L 144.5,238.0 L 145.5,237.0 L 145.5,235.0 L 145.5,233.0 L 146.5,232.0 L 146.5,230.0 L 145.0,229.5 L 143.0,229.5 L 141.0,229.5 L 139.0,229.5 L 138.0,228.5 L 137.5,227.0 L 137.5,225.0 L 138.0,223.5 L 139.0,222.5 L 141.0,222.5 L 143.0,222.5 L 145.0,222.5 L 147.0,222.5 L 148.5,222.0 L 148.5,220.0 L 149.5,219.0 L 149.5,217.0 L 150.5,216.0 L 151.0,214.5 L 151.5,213.0 L 150.0,212.5 L 150.0,211.5 L 151.0,210.5 L 152.0,211.5 L 152.5,210.0 L 153.5,209.0 L 154.5,208.0 L 155.0,206.5 L 155.5,205.0 L 156.5,204.0 L 157.5,203.0 L 158.0,201.5 L 159.0,200.5 L 159.5,199.0 L 160.5,198.0 L 161.5,197.0 L 162.5,196.0 L 163.5,195.0 L 164.5,194.0 L 165.5,193.0 L 166.5,192.0 L 167.5,191.0 L 168.5,190.0 L 170.0,189.5 L 171.0,188.5 L 172.0,187.5 L 173.0,186.5 L 174.5,186.0 L 175.5,185.0 L 177.0,184.5 L 178.0,183.5 L 179.0,182.5 L 180.5,182.0 L 182.0,181.5 L 183.0,180.5 L 184.5,180.0 L 186.0,179.5 L 187.5,179.0 L 189.0,178.5 L 190.5,178.0 L 192.0,177.5 L 193.5,177.0 L 195.0,176.5 L 197.0,176.5 L 198.0,175.5 L 200.0,175.5 L 202.0,175.5 L 202.0,174.5 L 201.5,173.0 L 200.5,172.0 L 200.0,170.5 L 199.0,169.5 L 198.5,168.0 L 197.5,167.0 L 196.5,166.0 L 195.5,165.0 L 195.5,163.0 L 196.0,161.5 L 197.0,160.5 L 199.0,160.5 L 200.5,161.0 L 201.5,162.0 L 202.5,163.0 L 203.5,164.0 L 204.5,165.0 L 205.5,166.0 L 206.0,167.5 L 206.5,169.0 L 207.5,169.0 L 207.5,167.0 L 207.5,165.0 L 207.5,163.0 L 207.5,161.0 L 208.5,160.0 L 208.5,158.0 L 208.5,156.0 L 209.5,155.0 L 211.0,154.5 L 213.0,154.5 L 214.0,155.5 L 214.5,157.0 L 214.5,159.0 L 214.5,161.0 L 214.5,163.0 L 214.5,165.0 L 214.5,167.0 L 215.5,167.0 L 216.5,166.0 L 217.5,165.0 L 218.5,164.0 L 219.5,163.0 L 220.5,162.0 L 221.5,161.0 L 223.0,160.5 L 225.0,160.5 L 226.0,161.5 L 226.5,163.0 L 226.5,165.0 L 225.5,166.0 L 224.5,167.0 L 223.5,168.0 L 222.5,169.0 L 222.0,170.5 L 221.0,171.5 L 220.5,173.0 L 219.5,174.0 L 218.5,175.0 L 220.0,175.5 L 222.0,175.5 L 223.0,176.5 L 225.0,176.5 L 226.5,177.0 L 228.0,177.5 L 229.5,178.0 L 231.0,178.5 L 232.5,179.0 L 234.0,179.5 L 235.5,180.0 L 237.0,180.5 L 238.0,181.5 L 239.5,182.0 L 240.5,183.0 L 242.0,183.5 L 243.0,184.5 L 244.5,185.0 L 245.5,186.0 L 247.0,186.5 L 248.0,187.5 L 249.0,188.5 L 250.0,189.5 L 251.0,190.5 L 252.5,191.0 L 253.5,192.0 L 254.5,193.0 L 255.5,194.0 L 256.5,195.0 L 257.5,196.0 L 258.5,197.0 L 259.0,198.5 L 260.0,199.5 L 261.0,200.5 L 261.5,202.0 L 262.5,203.0 L 263.5,204.0 L 264.0,205.5 L 265.0,206.5 L 265.5,208.0 L 266.5,209.0 L 267.0,210.5 L 267.5,212.0 L 268.5,213.0 L 268.5,215.0 L 269.5,216.0 L 269.5,218.0 L 270.5,219.0 L 270.5,221.0 L 271.5,222.0 L 273.0,222.5 L 275.0,222.5 L 277.0,222.5 L 279.0,222.5 L 281.0,222.5 L 281.5,224.0 L 282.5,225.0 L 282.5,227.0 L 281.5,228.0 L 280.5,229.0 L 279.0,229.5 L 277.0,229.5 L 275.0,229.5 L 273.5,230.0 L 273.5,232.0 L 275.0,232.5 L 275.0,231.5 L 275.0,230.5 L 277.0,230.5 L 279.0,230.5 L 280.0,231.5 L 280.0,232.5 L 278.5,233.0 L 280.0,233.5 L 281.5,234.0 L 283.0,234.5 L 284.5,235.0 L 286.0,235.5 L 287.0,236.5 L 288.5,237.0 L 290.0,237.5 L 291.0,238.5 L 292.0,239.5 L 293.0,240.5 L 294.5,241.0 L 295.5,242.0 L 296.0,243.5 L 297.0,244.5 L 298.0,245.5 L 298.5,247.0 L 299.5,248.0 L 300.0,249.5 L 300.5,251.0 L 302.0,251.5 L 304.0,251.5 L 306.0,251.5 L 307.5,251.0 Z"/>
<path d="M 110.0,177.5 L 108.5,177.0 L 109.0,175.5 L 109.5,174.0 L 110.5,174.0 L 111.5,175.0 L 111.0,176.5 L 110.0,177.5 Z"/>
<path d="M 263.5,222.0 L 263.5,220.0 L 262.5,219.0 L 262.0,217.5 L 261.5,216.0 L 261.0,214.5 L 260.0,213.5 L 259.5,212.0 L 258.5,211.0 L 258.0,209.5 L 257.5,208.0 L 256.5,207.0 L 256.0,205.5 L 255.0,204.5 L 254.0,203.5 L 253.0,202.5 L 252.5,201.0 L 251.5,200.0 L 250.5,199.0 L 249.5,198.0 L 248.5,197.0 L 247.5,196.0 L 246.5,195.0 L 245.0,194.5 L 244.0,193.5 L 243.0,192.5 L 242.0,191.5 L 240.5,191.0 L 239.5,190.0 L 238.0,189.5 L 237.0,188.5 L 235.5,188.0 L 234.0,187.5 L 233.0,186.5 L 231.0,186.5 L 230.0,185.5 L 228.5,186.0 L 227.0,186.5 L 225.5,186.0 L 227.0,185.5 L 227.0,184.5 L 225.5,184.0 L 224.0,183.5 L 222.0,183.5 L 220.5,183.0 L 219.0,182.5 L 217.0,182.5 L 215.0,182.5 L 213.0,182.5 L 211.0,182.5 L 209.0,182.5 L 207.0,182.5 L 205.0,182.5 L 203.0,182.5 L 201.0,182.5 L 199.5,183.0 L 198.0,183.5 L 196.0,183.5 L 194.5,184.0 L 193.0,184.5 L 191.5,185.0 L 190.0,185.5 L 189.0,186.5 L 187.0,186.5 L 186.0,187.5 L 184.5,188.0 L 183.0,188.5 L 182.0,189.5 L 180.5,190.0 L 179.5,191.0 L 178.0,191.5 L 177.0,192.5 L 176.0,193.5 L 175.0,194.5 L 173.5,195.0 L 172.5,196.0 L 171.5,197.0 L 170.5,198.0 L 169.5,199.0 L 168.5,200.0 L 167.5,201.0 L 166.5,202.0 L 166.0,203.5 L 165.0,204.5 L 164.0,205.5 L 163.5,207.0 L 162.5,208.0 L 161.5,209.0 L 161.0,210.5 L 160.5,212.0 L 159.5,213.0 L 159.0,214.5 L 158.5,216.0 L 157.5,217.0 L 157.5,219.0 L 156.5,220.0 L 156.5,222.0 L 158.0,222.5 L 160.0,222.5 L 162.0,222.5 L 163.5,222.0 L 164.5,221.0 L 165.0,219.5 L 165.5,218.0 L 166.5,217.0 L 167.5,216.0 L 168.5,215.0 L 169.5,214.0 L 170.5,213.0 L 172.0,212.5 L 173.0,211.5 L 174.5,211.0 L 176.0,210.5 L 177.0,209.5 L 179.0,209.5 L 180.5,209.0 L 179.0,208.5 L 179.0,207.5 L 180.5,207.0 L 182.0,206.5 L 184.0,206.5 L 185.0,207.5 L 186.5,208.0 L 185.0,208.5 L 185.0,209.5 L 187.0,209.5 L 188.5,210.0 L 190.0,210.5 L 191.0,211.5 L 192.5,212.0 L 194.0,212.5 L 195.0,213.5 L 196.0,214.5 L 197.0,215.5 L 198.0,216.5 L 198.5,218.0 L 199.5,219.0 L 200.5,220.0 L 201.0,221.5 L 202.0,222.5 L 203.5,222.0 L 205.0,221.5 L 207.0,221.5 L 208.0,220.5 L 210.0,220.5 L 211.5,221.0 L 213.0,221.5 L 215.0,221.5 L 216.0,222.5 L 218.0,222.5 L 218.5,221.0 L 219.5,220.0 L 220.0,218.5 L 220.5,217.0 L 221.5,216.0 L 222.5,215.0 L 223.5,214.0 L 225.0,213.5 L 226.0,212.5 L 227.0,211.5 L 228.5,211.0 L 230.0,210.5 L 231.0,209.5 L 233.0,209.5 L 234.0,208.5 L 236.0,208.5 L 238.0,208.5 L 240.0,208.5 L 241.0,209.5 L 243.0,209.5 L 244.0,210.5 L 245.5,211.0 L 247.0,211.5 L 248.0,212.5 L 249.0,213.5 L 250.5,214.0 L 251.5,215.0 L 252.5,216.0 L 253.5,217.0 L 254.0,218.5 L 254.5,220.0 L 255.5,221.0 L 256.0,222.5 L 258.0,222.5 L 260.0,222.5 L 262.0,222.5 L 263.5,222.0 Z"/>
<path d="M 307.0,192.5 L 306.5,191.0 L 305.5,190.0 L 304.5,189.0 L 303.0,188.5 L 302.5,187.0 L 303.5,187.0 L 305.0,187.5 L 306.5,188.0 L 307.5,189.0 L 307.5,191.0 L 307.0,192.5 Z"/>
<path d="M 309.0,201.5 L 308.0,200.5 L 307.0,199.5 L 306.0,198.5 L 304.5,198.0 L 304.0,196.5 L 303.5,195.0 L 304.5,195.0 L 306.0,195.5 L 306.5,197.0 L 307.5,198.0 L 308.5,199.0 L 309.5,200.0 L 309.0,201.5 Z"/>
<path d="M 308.0,211.5 L 307.5,210.0 L 307.5,208.0 L 308.5,207.0 L 309.5,207.0 L 309.5,209.0 L 308.5,210.0 L 308.0,211.5 Z"/>
<path d="M 185.5,240.0 L 187.0,239.5 L 188.5,239.0 L 190.0,238.5 L 191.0,237.5 L 192.0,236.5 L 193.0,235.5 L 193.5,234.0 L 194.5,233.0 L 194.5,231.0 L 195.5,230.0 L 195.5,228.0 L 195.5,226.0 L 195.0,224.5 L 194.5,223.0 L 194.0,221.5 L 193.0,220.5 L 192.0,219.5 L 191.0,218.5 L 190.0,217.5 L 189.0,216.5 L 187.5,216.0 L 186.0,215.5 L 184.0,215.5 L 183.0,214.5 L 181.5,215.0 L 180.0,215.5 L 178.0,215.5 L 177.0,216.5 L 175.5,217.0 L 174.5,218.0 L 173.5,219.0 L 172.5,220.0 L 171.5,221.0 L 172.5,221.0 L 173.5,221.0 L 174.5,222.0 L 173.0,222.5 L 171.0,222.5 L 170.5,224.0 L 169.5,225.0 L 169.5,227.0 L 169.5,229.0 L 169.5,231.0 L 170.5,232.0 L 171.0,233.5 L 171.5,235.0 L 172.5,236.0 L 173.5,237.0 L 174.5,238.0 L 176.0,238.5 L 177.0,239.5 L 178.5,240.0 L 180.0,240.5 L 182.0,240.5 L 184.0,240.5 L 185.5,240.0 Z"/>
<path d="M 239.5,240.0 L 241.0,239.5 L 242.5,239.0 L 244.0,238.5 L 245.0,237.5 L 246.0,236.5 L 247.0,235.5 L 248.0,234.5 L 248.5,233.0 L 249.5,232.0 L 249.5,230.0 L 250.5,229.0 L 250.5,227.0 L 250.0,225.5 L 249.5,224.0 L 249.0,222.5 L 248.0,221.5 L 247.0,222.5 L 245.5,222.0 L 246.0,220.5 L 247.5,220.0 L 246.5,219.0 L 245.5,218.0 L 244.5,218.0 L 243.0,218.5 L 241.5,218.0 L 243.0,217.5 L 243.0,216.5 L 242.0,215.5 L 240.0,215.5 L 238.5,215.0 L 237.0,214.5 L 235.5,215.0 L 234.0,215.5 L 232.0,215.5 L 231.0,216.5 L 229.5,217.0 L 228.5,218.0 L 227.5,219.0 L 226.5,220.0 L 225.5,221.0 L 225.0,222.5 L 224.5,224.0 L 223.5,225.0 L 223.5,227.0 L 223.5,229.0 L 224.0,230.5 L 224.5,232.0 L 225.0,233.5 L 226.0,232.5 L 228.0,232.5 L 228.0,231.5 L 227.5,230.0 L 227.5,228.0 L 227.5,226.0 L 228.5,225.0 L 229.0,223.5 L 230.0,222.5 L 231.0,221.5 L 232.5,221.0 L 234.0,220.5 L 235.5,221.0 L 237.0,221.5 L 238.0,222.5 L 239.5,223.0 L 240.0,224.5 L 240.5,226.0 L 241.0,227.5 L 241.0,228.5 L 240.5,230.0 L 240.0,231.5 L 239.0,232.5 L 238.0,233.5 L 237.0,234.5 L 235.5,235.0 L 234.0,235.5 L 232.5,235.0 L 231.0,234.5 L 230.0,233.5 L 229.5,235.0 L 228.0,235.5 L 226.5,236.0 L 227.5,237.0 L 229.0,237.5 L 230.0,238.5 L 231.5,239.0 L 233.0,239.5 L 234.5,240.0 L 236.0,240.5 L 238.0,240.5 L 239.5,240.0 Z"/>
<path d="M 274.0,221.5 L 272.0,221.5 L 271.5,220.0 L 272.0,218.5 L 273.0,217.5 L 273.5,219.0 L 274.5,220.0 L 274.0,221.5 Z"/>
<path d="M 187.0,235.5 L 185.0,235.5 L 183.0,235.5 L 182.0,234.5 L 181.0,233.5 L 180.0,232.5 L 179.0,231.5 L 178.5,230.0 L 178.5,228.0 L 178.5,226.0 L 179.0,224.5 L 180.0,223.5 L 181.0,222.5 L 182.0,221.5 L 184.0,221.5 L 185.0,220.5 L 186.0,221.5 L 188.0,221.5 L 189.0,222.5 L 190.0,223.5 L 191.0,224.5 L 191.5,226.0 L 192.0,227.5 L 193.5,227.0 L 194.5,227.0 L 194.5,229.0 L 193.5,230.0 L 192.5,230.0 L 192.0,228.5 L 191.5,230.0 L 191.0,231.5 L 191.0,232.5 L 193.0,232.5 L 193.0,233.5 L 192.0,234.5 L 190.0,234.5 L 189.0,233.5 L 188.0,234.5 L 187.0,235.5 Z"/>
<path d="M 414.0,221.5 L 413.5,223.0 L 413.5,225.0 L 413.5,227.0 L 413.5,229.0 L 413.5,231.0 L 413.5,233.0 L 413.5,235.0 L 413.5,237.0 L 413.0,238.5 L 412.5,240.0 L 412.5,242.0 L 412.5,244.0 L 412.5,246.0 L 411.5,247.0 L 411.5,249.0 L 411.5,251.0 L 411.5,253.0 L 410.5,254.0 L 411.5,255.0 L 411.0,256.5 L 410.5,258.0 L 410.5,260.0 L 409.5,261.0 L 409.5,263.0 L 409.0,264.5 L 408.5,266.0 L 408.0,267.5 L 407.5,269.0 L 407.5,271.0 L 407.0,272.5 L 406.5,274.0 L 406.0,275.5 L 405.5,277.0 L 405.5,279.0 L 405.0,280.5 L 404.5,282.0 L 404.5,284.0 L 403.5,285.0 L 403.5,287.0 L 403.0,288.5 L 402.5,290.0 L 401.5,291.0 L 401.5,293.0 L 400.5,294.0 L 400.0,295.5 L 399.5,297.0 L 399.0,298.5 L 398.5,300.0 L 397.5,301.0 L 397.0,302.5 L 397.0,303.5 L 397.0,304.5 L 396.0,305.5 L 395.5,307.0 L 394.5,308.0 L 394.5,310.0 L 393.5,311.0 L 393.0,312.5 L 392.0,313.5 L 391.5,315.0 L 391.0,316.5 L 390.5,318.0 L 389.5,319.0 L 388.5,320.0 L 388.0,321.5 L 387.5,323.0 L 387.0,324.5 L 386.5,326.0 L 385.5,327.0 L 385.0,328.5 L 384.0,329.5 L 383.5,331.0 L 383.0,332.5 L 382.0,333.5 L 381.0,334.5 L 380.5,336.0 L 379.5,337.0 L 379.0,338.5 L 378.5,340.0 L 377.5,341.0 L 376.5,342.0 L 376.0,343.5 L 375.0,344.5 L 374.5,346.0 L 373.5,347.0 L 373.0,348.5 L 371.5,349.0 L 371.0,350.5 L 370.5,352.0 L 369.0,352.5 L 368.5,354.0 L 367.5,355.0 L 366.5,356.0 L 366.0,357.5 L 365.0,358.5 L 364.0,359.5 L 363.0,360.5 L 362.0,361.5 L 361.5,363.0 L 360.5,364.0 L 359.5,365.0 L 358.5,366.0 L 358.0,367.5 L 356.5,368.0 L 355.5,369.0 L 355.5,371.0 L 354.0,371.5 L 353.0,372.5 L 352.0,373.5 L 351.5,375.0 L 350.0,375.5 L 349.0,376.5 L 347.5,377.0 L 347.0,378.5 L 345.5,379.0 L 345.0,380.5 L 343.5,381.0 L 342.5,382.0 L 341.5,383.0 L 341.0,384.5 L 339.5,385.0 L 338.5,386.0 L 337.5,387.0 L 336.5,388.0 L 335.5,389.0 L 334.5,390.0 L 333.5,391.0 L 332.0,391.5 L 331.0,392.5 L 330.0,393.5 L 329.0,394.5 L 327.5,395.0 L 327.0,396.5 L 325.5,397.0 L 325.0,398.5 L 324.0,399.5 L 322.5,400.0 L 321.0,400.5 L 320.0,401.5 L 319.0,402.5 L 317.5,403.0 L 316.0,403.5 L 314.5,404.0 L 313.5,405.0 L 313.0,406.5 L 311.0,406.5 L 310.0,407.5 L 309.0,408.5 L 307.5,409.0 L 306.0,409.5 L 305.0,410.5 L 304.5,412.0 L 303.0,412.5 L 301.5,413.0 L 300.0,413.5 L 299.0,414.5 L 298.0,415.5 L 297.0,416.5 L 295.0,416.5 L 293.5,417.0 L 292.5,418.0 L 291.0,418.5 L 290.0,419.5 L 288.0,419.5 L 287.0,420.5 L 285.0,420.5 L 283.5,421.0 L 282.0,421.5 L 281.0,422.5 L 279.5,423.0 L 278.0,423.5 L 277.0,424.5 L 275.0,424.5 L 274.0,425.5 L 272.5,426.0 L 271.0,426.5 L 270.0,427.5 L 268.0,427.5 L 266.5,428.0 L 265.0,428.5 L 263.5,429.0 L 262.0,429.5 L 260.5,430.0 L 259.0,430.5 L 257.0,430.5 L 255.5,431.0 L 254.0,431.5 L 252.0,431.5 L 251.0,432.5 L 249.5,433.0 L 248.0,433.5 L 246.5,434.0 L 245.0,434.5 L 243.0,434.5 L 241.0,434.5 L 239.0,434.5 L 238.0,435.5 L 236.0,435.5 L 234.0,435.5 L 232.0,435.5 L 230.5,436.0 L 229.0,436.5 L 227.0,436.5 L 225.0,436.5 L 223.5,437.0 L 222.0,437.5 L 220.0,437.5 L 218.0,437.5 L 216.0,437.5 L 214.0,437.5 Z"/>
<path d="M 316.0,227.5 L 315.5,226.0 L 314.5,225.0 L 313.0,224.5 L 313.0,223.5 L 315.0,223.5 L 316.5,224.0 L 316.5,226.0 L 316.0,227.5 Z"/>
<path d="M 196.5,438.0 L 195.0,437.5 L 193.0,437.5 L 192.0,436.5 L 191.0,437.5 L 190.0,436.5 L 188.0,436.5 L 186.0,436.5 L 184.0,436.5 L 182.0,436.5 L 180.5,436.0 L 179.5,436.0 L 178.5,436.0 L 177.0,435.5 L 176.0,434.5 L 174.0,434.5 L 172.0,434.5 L 170.5,434.0 L 169.0,433.5 L 168.0,434.5 L 167.0,433.5 L 165.0,433.5 L 163.0,433.5 L 161.5,433.0 L 160.0,432.5 L 158.0,432.5 L 156.5,432.0 L 155.5,431.0 L 154.0,430.5 L 152.0,430.5 L 151.0,429.5 L 149.0,429.5 L 147.5,429.0 L 146.0,428.5 L 144.0,428.5 L 143.0,427.5 L 142.0,426.5 L 140.5,426.0 L 139.0,425.5 L 137.5,425.0 L 136.5,424.0 L 135.0,423.5 L 134.0,422.5 L 132.0,422.5 L 130.5,422.0 L 129.0,421.5 L 128.0,420.5 L 126.0,420.5 L 124.5,420.0 L 123.5,419.0 L 122.5,418.0 L 121.0,417.5 L 120.0,416.5 L 118.5,416.0 L 117.0,415.5 L 116.0,414.5 L 114.0,414.5 L 113.0,413.5 L 112.0,412.5 L 110.0,412.5 L 109.0,411.5 L 108.0,410.5 L 106.5,410.0 L 105.5,409.0 L 104.0,408.5 L 103.0,407.5 L 102.0,406.5 L 100.5,406.0 L 99.5,405.0 L 98.0,404.5 L 97.0,403.5 L 95.0,403.5 L 94.0,402.5 L 93.0,401.5 L 92.0,400.5 L 90.5,400.0 L 89.5,399.0 L 88.0,398.5 L 87.0,397.5 L 86.0,396.5 L 84.5,396.0 L 84.0,394.5 L 82.5,394.0 L 81.0,393.5 L 80.0,392.5 L 79.0,391.5 L 78.0,390.5 L 77.0,389.5 L 76.5,388.0 L 75.0,387.5 L 74.0,386.5 L 72.5,386.0 L 71.5,385.0 L 70.5,384.0 L 70.0,382.5 L 69.0,381.5 L 68.0,380.5 L 66.5,380.0 L 65.5,379.0 L 64.5,378.0 L 63.5,377.0 L 62.5,376.0 L 62.0,374.5 L 60.5,374.0 L 59.5,373.0 L 58.5,372.0 L 58.0,370.5 L 57.5,369.0 L 56.5,368.0 L 55.5,367.0 L 54.5,366.0 L 53.5,365.0 L 52.5,364.0 L 51.5,363.0 L 50.5,362.0 L 49.5,361.0 L 48.5,360.0 L 48.0,358.5 L 47.0,357.5 L 46.5,356.0 L 45.5,355.0 L 44.5,354.0 L 44.0,352.5 L 43.0,351.5 L 42.0,350.5 L 41.0,349.5 L 40.0,348.5 L 39.5,347.0 L 38.5,346.0 L 38.0,344.5 L 37.5,343.0 L 36.5,342.0 L 35.5,341.0 L 34.5,340.0 L 34.0,338.5 L 33.5,337.0 L 32.0,336.5 L 31.5,335.0 L 30.5,334.0 L 30.0,332.5 L 29.5,331.0 L 28.5,330.0 L 28.5,328.0 L 28.0,326.5 L 27.0,325.5 L 26.0,324.5 L 25.5,323.0 L 25.0,321.5 L 24.5,320.0 L 23.5,319.0 L 22.5,318.0 L 22.5,316.0 L 21.5,315.0 L 21.5,313.0 L 20.5,312.0 L 19.5,311.0 L 19.0,309.5 L 18.5,308.0 L 17.5,307.0 L 17.5,305.0 L 16.5,304.0 L 16.5,302.0 L 16.0,300.5 L 15.5,299.0 L 14.5,298.0 L 14.5,296.0 L 14.0,294.5 L 12.5,294.0 L 12.0,292.5 L 11.5,291.0 L 11.5,289.0 L 10.5,288.0 L 10.5,286.0 L 10.5,284.0 L 9.5,283.0 L 10.5,282.0 L 9.5,281.0 L 8.5,280.0 L 8.5,278.0 L 8.0,276.5 L 7.5,275.0 L 7.0,273.5 L 6.5,272.0 L 6.0,270.5 L 5.5,269.0 L 5.5,267.0 L 4.5,266.0 L 4.5,264.0 L 4.5,262.0 L 4.0,260.5 L 4.0,259.5 L 4.0,258.5 L 3.5,257.0 L 3.5,255.0 L 2.5,254.0 L 3.5,253.0 L 2.5,252.0 L 2.5,250.0 L 2.0,248.5 L 2.0,247.5 L 2.5,246.0 L 1.5,245.0 L 0.5,244.0 L 1.5,243.0 L 1.5,241.0 L 0.5,240.0 L 0.5,238.0 L 0.5,236.0 L 0.5,234.0 L 0.5,232.0 L 0.5,230.0 L 0.5,228.0 L 0.5,226.0 Z"/>
<path d="M 208.5,251.0 L 207.5,250.0 L 206.5,249.0 L 205.5,248.0 L 204.5,247.0 L 203.5,246.0 L 202.5,245.0 L 201.5,244.0 L 201.5,242.0 L 201.5,240.0 L 202.5,239.0 L 204.0,238.5 L 205.0,237.5 L 207.0,237.5 L 209.0,237.5 L 211.0,237.5 L 213.0,237.5 L 214.5,238.0 L 216.0,238.5 L 217.0,239.5 L 218.0,238.5 L 220.0,238.5 L 220.5,240.0 L 219.5,241.0 L 218.5,241.0 L 217.5,241.0 L 217.5,243.0 L 216.5,244.0 L 215.5,245.0 L 214.5,246.0 L 215.0,247.5 L 216.5,248.0 L 217.5,249.0 L 219.0,249.5 L 221.0,249.5 L 223.0,249.5 L 225.0,249.5 L 227.0,249.5 L 229.0,249.5 L 231.0,249.5 L 233.0,249.5 L 235.0,249.5 L 236.5,249.0 L 237.0,247.5 L 237.0,246.5 L 235.0,246.5 L 233.5,246.0 L 232.0,245.5 L 230.0,245.5 L 229.0,244.5 L 227.5,244.0 L 226.0,243.5 L 225.0,242.5 L 224.0,241.5 L 222.5,241.0 L 221.5,240.0 L 221.0,238.5 L 220.0,237.5 L 219.5,236.0 L 218.5,235.0 L 218.0,233.5 L 217.0,234.5 L 215.5,234.0 L 214.5,233.0 L 213.5,232.0 L 213.0,230.5 L 211.5,230.0 L 213.0,229.5 L 214.5,230.0 L 216.0,230.5 L 217.0,231.5 L 217.0,230.5 L 216.0,229.5 L 214.5,229.0 L 213.0,228.5 L 212.0,227.5 L 210.0,227.5 L 208.0,227.5 L 206.5,228.0 L 205.0,228.5 L 204.0,229.5 L 202.5,230.0 L 201.5,231.0 L 201.5,233.0 L 200.5,234.0 L 200.0,235.5 L 199.5,237.0 L 198.5,238.0 L 197.5,239.0 L 196.5,240.0 L 195.5,241.0 L 194.5,242.0 L 193.5,243.0 L 192.0,243.5 L 191.0,244.5 L 190.0,245.5 L 188.0,245.5 L 187.0,246.5 L 185.0,246.5 L 183.0,246.5 L 181.0,246.5 L 179.0,246.5 L 177.5,246.0 L 176.0,245.5 L 174.5,245.0 L 173.0,244.5 L 172.0,243.5 L 171.0,242.5 L 169.5,242.0 L 168.5,241.0 L 167.5,240.0 L 166.5,239.0 L 166.0,237.5 L 165.0,236.5 L 164.5,235.0 L 164.0,233.5 L 163.0,234.5 L 161.5,234.0 L 160.5,233.0 L 161.0,231.5 L 162.0,230.5 L 162.5,232.0 L 163.5,232.0 L 163.5,230.0 L 162.0,229.5 L 160.0,229.5 L 158.0,229.5 L 156.0,229.5 L 154.5,230.0 L 154.0,231.5 L 153.5,233.0 L 153.5,235.0 L 153.0,236.5 L 152.5,238.0 L 152.5,240.0 L 152.0,241.5 L 151.5,243.0 L 150.5,244.0 L 150.5,246.0 L 150.5,248.0 L 151.5,249.0 L 151.5,251.0 L 153.0,251.5 L 155.0,251.5 L 157.0,251.5 L 159.0,251.5 L 161.0,251.5 L 163.0,251.5 L 165.0,251.5 L 167.0,251.5 L 169.0,251.5 L 171.0,251.5 L 173.0,251.5 L 175.0,251.5 L 177.0,251.5 L 179.0,251.5 L 181.0,251.5 L 183.0,251.5 L 185.0,251.5 L 187.0,251.5 L 189.0,251.5 L 191.0,251.5 L 193.0,251.5 L 195.0,251.5 L 197.0,251.5 L 199.0,251.5 L 201.0,251.5 L 202.5,251.0 L 201.0,250.5 L 199.0,250.5 L 197.0,250.5 L 195.0,250.5 L 193.0,250.5 L 191.0,250.5 L 189.0,250.5 L 187.0,250.5 L 185.0,250.5 L 183.0,250.5 L 181.0,250.5 L 179.0,250.5 L 177.0,250.5 L 175.0,250.5 L 173.0,250.5 L 171.0,250.5 L 169.0,250.5 L 167.0,250.5 L 165.0,250.5 L 163.0,250.5 L 161.0,250.5 L 159.0,250.5 L 157.0,250.5 L 155.0,250.5 L 153.0,250.5 L 153.0,249.5 L 155.0,249.5 L 157.0,249.5 L 159.0,249.5 L 161.0,249.5 L 163.0,249.5 L 165.0,249.5 L 167.0,249.5 L 169.0,249.5 L 171.0,249.5 L 172.5,249.0 L 171.5,248.0 L 172.5,247.0 L 174.0,246.5 L 175.0,247.5 L 175.0,248.5 L 175.0,249.5 L 177.0,249.5 L 179.0,249.5 L 181.0,249.5 L 183.0,249.5 L 185.0,249.5 L 186.0,248.5 L 187.0,249.5 L 189.0,249.5 L 191.0,249.5 L 193.0,249.5 L 195.0,249.5 L 197.0,249.5 L 199.0,249.5 L 201.0,249.5 L 202.5,249.0 L 203.5,248.0 L 204.5,248.0 L 205.5,249.0 L 206.5,250.0 L 205.5,251.0 L 207.0,251.5 L 208.5,251.0 Z"/>
<path d="M 352.0,228.5 L 350.0,228.5 L 348.0,228.5 L 346.0,228.5 L 344.0,228.5 L 342.0,228.5 L 340.0,228.5 L 338.0,228.5 L 336.0,228.5 L 336.0,227.5 L 338.0,227.5 L 340.0,227.5 L 342.0,227.5 L 344.0,227.5 L 346.0,227.5 L 348.0,227.5 L 350.0,227.5 L 352.0,227.5 L 352.0,228.5 Z"/>
<path d="M 255.5,236.0 L 256.5,235.0 L 258.0,234.5 L 259.0,233.5 L 261.0,233.5 L 261.0,232.5 L 259.0,232.5 L 257.5,232.0 L 258.0,230.5 L 260.0,230.5 L 262.0,230.5 L 264.0,230.5 L 265.5,230.0 L 264.0,229.5 L 262.0,229.5 L 260.0,229.5 L 258.0,229.5 L 256.5,230.0 L 256.0,231.5 L 255.5,233.0 L 255.0,234.5 L 254.5,236.0 L 255.5,236.0 Z"/>
<path d="M 144.0,233.5 L 142.5,233.0 L 142.0,231.5 L 142.0,230.5 L 144.0,230.5 L 145.5,231.0 L 144.5,232.0 L 144.0,233.5 Z"/>
<path d="M 317.0,241.5 L 316.5,240.0 L 315.5,239.0 L 314.5,239.0 L 313.5,239.0 L 313.5,237.0 L 314.5,236.0 L 315.0,234.5 L 315.5,236.0 L 316.5,237.0 L 318.0,237.5 L 318.5,239.0 L 319.5,240.0 L 318.0,240.5 L 317.0,241.5 Z"/>
<path d="M 82.5,255.0 L 81.0,254.5 L 79.0,254.5 L 77.0,254.5 L 75.0,254.5 L 73.0,254.5 L 71.0,254.5 L 69.0,254.5 L 67.0,254.5 L 65.0,254.5 L 65.0,253.5 L 67.0,253.5 L 69.0,253.5 L 71.0,253.5 L 73.0,253.5 L 75.0,253.5 L 77.0,253.5 L 78.5,253.0 L 79.5,252.0 L 80.5,251.0 L 79.5,250.0 L 80.5,249.0 L 80.5,247.0 L 80.5,245.0 L 81.0,243.5 L 81.5,245.0 L 82.5,245.0 L 82.5,243.0 L 81.5,242.0 L 81.0,240.5 L 80.5,239.0 L 79.5,238.0 L 78.5,237.0 L 77.0,236.5 L 76.0,235.5 L 74.0,235.5 L 72.0,235.5 L 70.0,235.5 L 68.0,235.5 L 66.0,235.5 L 64.0,235.5 L 62.0,235.5 L 60.0,235.5 L 59.0,236.5 L 57.5,237.0 L 56.5,238.0 L 55.5,239.0 L 55.5,241.0 L 54.5,242.0 L 54.5,244.0 L 54.5,246.0 L 54.5,248.0 L 55.5,249.0 L 55.5,251.0 L 56.5,252.0 L 57.5,253.0 L 59.0,253.5 L 60.0,254.5 L 62.0,254.5 L 63.5,255.0 L 65.0,255.5 L 67.0,255.5 L 69.0,255.5 L 71.0,255.5 L 73.0,255.5 L 75.0,255.5 L 77.0,255.5 L 79.0,255.5 L 81.0,255.5 L 82.5,255.0 Z"/>
<path d="M 349.5,255.0 L 351.0,254.5 L 352.5,254.0 L 354.0,253.5 L 355.0,252.5 L 355.5,251.0 L 356.5,250.0 L 357.0,248.5 L 357.5,247.0 L 357.5,245.0 L 357.5,243.0 L 356.5,242.0 L 356.5,240.0 L 355.5,239.0 L 354.5,238.0 L 353.5,237.0 L 352.0,236.5 L 351.0,235.5 L 349.0,235.5 L 347.0,235.5 L 345.0,235.5 L 343.0,235.5 L 341.0,235.5 L 339.0,235.5 L 337.0,235.5 L 335.5,236.0 L 334.0,236.5 L 333.0,237.5 L 332.0,238.5 L 331.0,239.5 L 330.5,241.0 L 329.5,242.0 L 329.5,244.0 L 328.5,245.0 L 328.5,247.0 L 328.5,249.0 L 328.5,251.0 L 328.5,253.0 L 329.5,253.0 L 330.0,251.5 L 330.5,253.0 L 332.0,253.5 L 333.0,252.5 L 334.0,253.5 L 336.0,253.5 L 338.0,253.5 L 340.0,253.5 L 342.0,253.5 L 344.0,253.5 L 346.0,253.5 L 348.0,253.5 L 348.0,254.5 L 346.0,254.5 L 344.0,254.5 L 342.0,254.5 L 340.0,254.5 L 338.0,254.5 L 336.0,254.5 L 334.0,254.5 L 332.0,254.5 L 330.5,255.0 L 332.0,255.5 L 334.0,255.5 L 336.0,255.5 L 338.0,255.5 L 340.0,255.5 L 342.0,255.5 L 344.0,255.5 L 346.0,255.5 L 348.0,255.5 L 349.5,255.0 Z"/>
<path d="M 261.5,245.0 L 263.0,244.5 L 264.0,243.5 L 265.5,244.0 L 266.5,244.0 L 266.5,242.0 L 266.0,240.5 L 264.5,241.0 L 263.0,241.5 L 261.5,242.0 L 260.5,243.0 L 259.0,243.5 L 259.0,244.5 L 260.5,245.0 L 261.5,245.0 Z"/>
<path d="M 292.5,251.0 L 292.0,249.5 L 291.0,248.5 L 290.0,247.5 L 289.0,246.5 L 288.0,245.5 L 286.5,245.0 L 285.5,244.0 L 284.0,243.5 L 283.0,242.5 L 281.0,242.5 L 280.0,241.5 L 278.0,241.5 L 276.0,241.5 L 275.0,240.5 L 274.5,242.0 L 274.5,244.0 L 274.0,245.5 L 273.0,246.5 L 271.0,246.5 L 269.0,246.5 L 267.5,247.0 L 266.5,248.0 L 266.0,249.5 L 265.5,251.0 L 267.0,251.5 L 269.0,251.5 L 271.0,251.5 L 273.0,251.5 L 275.0,251.5 L 277.0,251.5 L 279.0,251.5 L 281.0,251.5 L 283.0,251.5 L 285.0,251.5 L 287.0,251.5 L 289.0,251.5 L 291.0,251.5 L 292.5,251.0 Z"/>
<path d="M 258.5,251.0 L 258.5,249.0 L 259.0,247.5 L 259.0,246.5 L 257.0,246.5 L 256.0,247.5 L 256.0,248.5 L 257.0,249.5 L 257.0,250.5 L 255.0,250.5 L 253.0,250.5 L 251.5,250.0 L 252.5,249.0 L 253.5,248.0 L 254.5,247.0 L 253.5,247.0 L 252.5,248.0 L 251.5,249.0 L 250.5,250.0 L 249.5,251.0 L 251.0,251.5 L 253.0,251.5 L 255.0,251.5 L 257.0,251.5 L 258.5,251.0 Z"/>
<path d="M 288.0,250.5 L 286.0,250.5 L 286.0,249.5 L 286.5,248.0 L 287.0,246.5 L 288.5,247.0 L 289.5,248.0 L 288.5,249.0 L 288.0,250.5 Z"/>
<path d="M 272.0,250.5 L 270.0,250.5 L 268.5,250.0 L 268.5,248.0 L 270.0,247.5 L 272.0,247.5 L 272.5,249.0 L 272.0,250.5 Z"/>
<path d="M 240.5,251.0 L 239.0,250.5 L 237.0,250.5 L 235.0,250.5 L 233.0,250.5 L 231.0,250.5 L 229.0,250.5 L 227.0,250.5 L 225.0,250.5 L 223.0,250.5 L 221.0,250.5 L 219.0,250.5 L 217.0,250.5 L 215.0,250.5 L 213.0,250.5 L 213.0,249.5 L 213.0,248.5 L 212.0,249.5 L 211.0,250.5 L 211.0,251.5 L 213.0,251.5 L 215.0,251.5 L 217.0,251.5 L 219.0,251.5 L 221.0,251.5 L 223.0,251.5 L 225.0,251.5 L 227.0,251.5 L 229.0,251.5 L 231.0,251.5 L 233.0,251.5 L 235.0,251.5 L 237.0,251.5 L 239.0,251.5 L 240.5,251.0 Z"/>
<path d="M 306.0,250.5 L 304.0,250.5 L 302.0,250.5 L 301.5,249.0 L 303.0,248.5 L 305.0,248.5 L 306.5,249.0 L 306.0,250.5 Z"/>
<path d="M 131.0,250.5 L 129.0,250.5 L 127.0,250.5 L 125.0,250.5 L 123.0,250.5 L 121.0,250.5 L 119.0,250.5 L 117.5,250.0 L 119.0,249.5 L 121.0,249.5 L 123.0,249.5 L 125.0,249.5 L 127.0,249.5 L 129.0,249.5 L 131.0,249.5 L 131.0,250.5 Z"/>
<path d="M 283.0,250.5 L 281.0,250.5 L 279.0,250.5 L 277.0,250.5 L 277.0,249.5 L 279.0,249.5 L 281.0,249.5 L 283.0,249.5 L 283.0,250.5 Z"/>
<path d="M 105.0,318.5 L 103.0,318.5 L 101.0,318.5 L 99.0,318.5 L 97.0,318.5 L 95.0,318.5 L 93.0,318.5 L 92.0,317.5 L 90.5,317.0 L 89.0,316.5 L 88.0,315.5 L 87.0,314.5 L 85.5,314.0 L 84.5,313.0 L 83.5,312.0 L 82.5,311.0 L 82.0,309.5 L 81.0,308.5 L 80.5,307.0 L 79.5,306.0 L 79.5,304.0 L 78.5,303.0 L 78.5,301.0 L 78.5,299.0 L 78.5,297.0 L 78.5,295.0 L 78.5,293.0 L 79.5,292.0 L 79.5,290.0 L 80.5,289.0 L 81.0,287.5 L 82.0,286.5 L 82.5,285.0 L 83.5,284.0 L 84.5,283.0 L 85.5,282.0 L 86.5,281.0 L 88.0,280.5 L 89.0,279.5 L 90.5,279.0 L 92.0,278.5 L 93.0,277.5 L 95.0,277.5 L 97.0,277.5 L 98.5,277.0 L 97.0,276.5 L 95.0,276.5 L 95.0,275.5 L 97.0,275.5 L 99.0,275.5 L 101.0,275.5 L 103.0,275.5 L 103.0,276.5 L 101.0,276.5 L 101.0,277.5 L 103.0,277.5 L 105.0,277.5 L 106.0,278.5 L 108.0,278.5 L 109.0,279.5 L 110.0,280.5 L 111.5,281.0 L 112.5,282.0 L 113.5,283.0 L 114.5,284.0 L 115.5,285.0 L 116.5,286.0 L 117.0,287.5 L 118.0,288.5 L 118.5,290.0 L 119.0,291.5 L 119.5,293.0 L 120.0,294.5 L 120.5,296.0 L 120.5,298.0 L 120.5,300.0 L 120.0,301.5 L 119.5,303.0 L 119.5,305.0 L 118.5,306.0 L 118.0,307.5 L 117.0,308.5 L 116.5,310.0 L 115.5,311.0 L 114.5,312.0 L 113.5,313.0 L 112.5,314.0 L 111.5,315.0 L 110.0,315.5 L 109.0,316.5 L 107.5,317.0 L 106.0,317.5 L 105.0,318.5 Z"/>
<path d="M 316.0,276.5 L 314.0,276.5 L 312.0,276.5 L 310.0,276.5 L 308.0,276.5 L 308.0,275.5 L 310.0,275.5 L 312.0,275.5 L 314.0,275.5 L 316.0,275.5 L 316.0,276.5 Z"/>
<path d="M 319.0,318.5 L 317.0,318.5 L 315.0,318.5 L 313.0,318.5 L 311.0,318.5 L 309.0,318.5 L 307.0,318.5 L 305.5,318.0 L 304.0,317.5 L 303.0,316.5 L 301.5,316.0 L 300.0,315.5 L 299.0,314.5 L 298.0,313.5 L 297.0,312.5 L 296.0,311.5 L 295.0,310.5 L 294.5,309.0 L 293.5,308.0 L 293.0,306.5 L 292.5,305.0 L 292.0,303.5 L 291.5,302.0 L 291.5,300.0 L 291.5,298.0 L 291.5,296.0 L 291.5,294.0 L 292.0,292.5 L 292.5,291.0 L 293.0,289.5 L 293.5,288.0 L 294.5,287.0 L 295.5,286.0 L 296.0,284.5 L 297.0,283.5 L 298.0,282.5 L 299.0,281.5 L 300.0,280.5 L 301.5,280.0 L 303.0,279.5 L 304.0,278.5 L 306.0,278.5 L 307.0,277.5 L 309.0,277.5 L 311.0,277.5 L 313.0,277.5 L 315.0,277.5 L 317.0,277.5 L 318.5,278.0 L 320.0,278.5 L 321.5,279.0 L 323.0,279.5 L 324.0,280.5 L 325.0,281.5 L 326.5,282.0 L 327.5,283.0 L 328.5,284.0 L 329.5,285.0 L 330.0,286.5 L 331.0,287.5 L 331.5,289.0 L 332.0,290.5 L 332.5,292.0 L 333.0,293.5 L 333.5,295.0 L 333.5,297.0 L 333.5,299.0 L 333.5,301.0 L 334.5,301.0 L 334.5,299.0 L 334.5,297.0 L 335.0,295.5 L 335.5,297.0 L 335.5,299.0 L 335.5,301.0 L 335.0,302.5 L 334.5,304.0 L 334.0,305.5 L 333.5,304.0 L 333.0,302.5 L 332.5,304.0 L 332.0,305.5 L 331.5,307.0 L 331.0,308.5 L 330.0,309.5 L 329.0,310.5 L 328.0,311.5 L 327.0,312.5 L 326.0,313.5 L 325.0,314.5 L 324.0,315.5 L 323.0,316.5 L 321.5,317.0 L 320.0,317.5 L 319.0,318.5 Z"/>
<path d="M 101.5,312.0 L 103.0,311.5 L 104.5,311.0 L 103.0,310.5 L 103.0,309.5 L 105.0,309.5 L 106.0,310.5 L 107.5,310.0 L 108.5,309.0 L 109.5,308.0 L 110.5,307.0 L 111.5,306.0 L 112.0,304.5 L 112.5,303.0 L 111.0,302.5 L 110.5,301.0 L 111.5,300.0 L 112.5,300.0 L 113.0,301.5 L 113.5,300.0 L 113.5,298.0 L 113.5,296.0 L 113.0,294.5 L 112.5,293.0 L 112.0,291.5 L 111.5,290.0 L 110.5,289.0 L 109.5,288.0 L 108.5,287.0 L 107.5,286.0 L 106.0,285.5 L 105.0,284.5 L 103.0,284.5 L 102.0,283.5 L 100.0,283.5 L 98.0,283.5 L 96.0,283.5 L 95.0,284.5 L 93.0,284.5 L 92.0,285.5 L 90.5,286.0 L 89.5,287.0 L 88.5,288.0 L 87.5,289.0 L 87.0,290.5 L 86.5,292.0 L 85.5,293.0 L 85.5,295.0 L 85.0,296.5 L 84.5,298.0 L 84.5,300.0 L 85.5,301.0 L 85.5,303.0 L 86.5,304.0 L 87.0,305.5 L 87.5,307.0 L 88.5,308.0 L 89.5,309.0 L 91.0,309.5 L 92.0,310.5 L 93.5,311.0 L 95.0,311.5 L 96.5,312.0 L 98.0,312.5 L 100.0,312.5 L 101.5,312.0 Z"/>
<path d="M 315.5,312.0 L 317.0,311.5 L 318.5,311.0 L 320.0,310.5 L 321.0,309.5 L 322.0,308.5 L 323.0,307.5 L 324.0,306.5 L 324.5,305.0 L 325.5,304.0 L 325.0,302.5 L 323.5,302.0 L 324.0,300.5 L 325.0,299.5 L 325.5,301.0 L 326.5,301.0 L 327.0,299.5 L 327.5,298.0 L 327.0,296.5 L 326.5,295.0 L 326.0,293.5 L 325.5,292.0 L 324.5,291.0 L 324.0,289.5 L 323.0,288.5 L 322.0,287.5 L 321.0,286.5 L 320.0,285.5 L 318.5,285.0 L 317.0,284.5 L 315.5,284.0 L 314.0,283.5 L 312.0,283.5 L 310.0,283.5 L 309.0,284.5 L 307.0,284.5 L 306.0,285.5 L 304.5,286.0 L 303.5,287.0 L 302.0,287.5 L 301.5,289.0 L 300.5,290.0 L 299.5,291.0 L 299.0,292.5 L 298.5,294.0 L 298.5,296.0 L 297.5,297.0 L 297.5,299.0 L 298.5,300.0 L 298.5,302.0 L 299.0,303.5 L 299.5,305.0 L 300.5,306.0 L 301.0,307.5 L 302.0,308.5 L 303.0,309.5 L 304.5,310.0 L 306.0,310.5 L 307.0,311.5 L 309.0,311.5 L 310.0,312.5 L 312.0,312.5 L 314.0,312.5 L 315.5,312.0 Z"/>
<path d="M 122.0,301.5 L 121.5,300.0 L 121.5,298.0 L 121.5,296.0 L 122.5,295.0 L 123.5,295.0 L 123.5,297.0 L 123.5,299.0 L 123.0,300.5 L 122.0,301.5 Z"/>
<path d="M 260.5,311.0 L 259.0,310.5 L 257.0,310.5 L 255.0,310.5 L 255.0,309.5 L 257.0,309.5 L 259.0,309.5 L 259.5,308.0 L 258.5,307.0 L 258.0,305.5 L 256.5,305.0 L 255.0,304.5 L 254.0,303.5 L 252.5,303.0 L 251.0,302.5 L 250.0,301.5 L 248.5,301.0 L 247.0,300.5 L 245.0,300.5 L 243.0,300.5 L 241.0,300.5 L 239.0,300.5 L 237.0,300.5 L 235.0,300.5 L 233.0,300.5 L 231.0,300.5 L 229.0,300.5 L 227.0,300.5 L 225.0,300.5 L 223.0,300.5 L 221.0,300.5 L 219.0,300.5 L 217.0,300.5 L 215.0,300.5 L 213.0,300.5 L 211.0,300.5 L 209.0,300.5 L 207.0,300.5 L 205.0,300.5 L 203.0,300.5 L 201.0,300.5 L 199.0,300.5 L 197.0,300.5 L 195.0,300.5 L 193.0,300.5 L 191.0,300.5 L 189.0,300.5 L 187.0,300.5 L 185.0,300.5 L 183.0,300.5 L 181.0,300.5 L 179.0,300.5 L 177.0,300.5 L 175.0,300.5 L 173.0,300.5 L 171.0,300.5 L 169.0,300.5 L 167.0,300.5 L 165.0,300.5 L 163.0,300.5 L 161.5,301.0 L 160.0,301.5 L 159.0,302.5 L 157.5,303.0 L 156.5,304.0 L 155.5,305.0 L 154.5,306.0 L 153.5,307.0 L 153.0,308.5 L 152.5,310.0 L 151.5,311.0 L 153.0,311.5 L 155.0,311.5 L 157.0,311.5 L 159.0,311.5 L 161.0,311.5 L 163.0,311.5 L 165.0,311.5 L 167.0,311.5 L 169.0,311.5 L 171.0,311.5 L 173.0,311.5 L 175.0,311.5 L 177.0,311.5 L 179.0,311.5 L 181.0,311.5 L 183.0,311.5 L 185.0,311.5 L 187.0,311.5 L 189.0,311.5 L 191.0,311.5 L 193.0,311.5 L 195.0,311.5 L 197.0,311.5 L 199.0,311.5 L 201.0,311.5 L 203.0,311.5 L 205.0,311.5 L 207.0,311.5 L 209.0,311.5 L 211.0,311.5 L 213.0,311.5 L 215.0,311.5 L 217.0,311.5 L 219.0,311.5 L 221.0,311.5 L 223.0,311.5 L 225.0,311.5 L 227.0,311.5 L 229.0,311.5 L 231.0,311.5 L 233.0,311.5 L 235.0,311.5 L 237.0,311.5 L 239.0,311.5 L 241.0,311.5 L 243.0,311.5 L 245.0,311.5 L 247.0,311.5 L 249.0,311.5 L 251.0,311.5 L 253.0,311.5 L 255.0,311.5 L 257.0,311.5 L 259.0,311.5 L 260.5,311.0 Z"/>
<path d="M 66.0,310.5 L 65.5,309.0 L 65.5,307.0 L 65.5,305.0 L 65.5,303.0 L 66.5,303.0 L 66.5,305.0 L 66.5,307.0 L 66.5,309.0 L 66.0,310.5 Z"/>
<path d="M 158.0,310.5 L 156.0,310.5 L 154.0,310.5 L 153.5,309.0 L 154.5,308.0 L 155.5,308.0 L 156.5,309.0 L 158.0,309.5 L 158.0,310.5 Z"/>
<path d="M 355.0,323.5 L 354.5,322.0 L 354.5,320.0 L 354.5,318.0 L 354.5,316.0 L 354.5,314.0 L 354.5,312.0 L 354.5,310.0 L 355.5,310.0 L 355.5,312.0 L 355.5,314.0 L 355.5,316.0 L 355.5,318.0 L 355.5,320.0 L 355.5,322.0 L 355.0,323.5 Z"/>
<path d="M 266.5,330.0 L 265.0,329.5 L 263.5,329.0 L 264.0,327.5 L 265.0,328.5 L 265.5,327.0 L 265.0,325.5 L 264.5,324.0 L 264.5,322.0 L 263.5,321.0 L 263.5,319.0 L 262.0,318.5 L 262.0,319.5 L 262.0,320.5 L 261.0,321.5 L 259.5,321.0 L 258.0,320.5 L 258.0,319.5 L 259.5,319.0 L 258.0,318.5 L 256.0,318.5 L 254.0,318.5 L 252.0,318.5 L 250.0,318.5 L 248.0,318.5 L 246.0,318.5 L 244.0,318.5 L 242.0,318.5 L 240.0,318.5 L 238.0,318.5 L 236.0,318.5 L 234.0,318.5 L 232.0,318.5 L 230.0,318.5 L 228.0,318.5 L 226.0,318.5 L 224.0,318.5 L 222.0,318.5 L 220.0,318.5 L 218.0,318.5 L 216.0,318.5 L 214.0,318.5 L 212.0,318.5 L 210.0,318.5 L 208.0,318.5 L 206.0,318.5 L 204.0,318.5 L 202.0,318.5 L 200.0,318.5 L 198.0,318.5 L 196.0,318.5 L 194.0,318.5 L 192.0,318.5 L 190.0,318.5 L 188.0,318.5 L 186.0,318.5 L 184.0,318.5 L 182.0,318.5 L 180.0,318.5 L 178.0,318.5 L 176.0,318.5 L 174.0,318.5 L 172.0,318.5 L 170.0,318.5 L 168.0,318.5 L 166.0,318.5 L 164.0,318.5 L 162.0,318.5 L 160.0,318.5 L 158.0,318.5 L 156.0,318.5 L 154.0,318.5 L 152.0,318.5 L 150.0,318.5 L 148.0,318.5 L 147.5,320.0 L 147.5,322.0 L 147.0,323.5 L 146.5,325.0 L 146.5,327.0 L 146.0,328.5 L 145.5,330.0 L 147.0,330.5 L 149.0,330.5 L 151.0,330.5 L 153.0,330.5 L 155.0,330.5 L 157.0,330.5 L 159.0,330.5 L 161.0,330.5 L 163.0,330.5 L 165.0,330.5 L 167.0,330.5 L 169.0,330.5 L 171.0,330.5 L 173.0,330.5 L 175.0,330.5 L 177.0,330.5 L 179.0,330.5 L 181.0,330.5 L 183.0,330.5 L 185.0,330.5 L 187.0,330.5 L 189.0,330.5 L 191.0,330.5 L 193.0,330.5 L 195.0,330.5 L 197.0,330.5 L 199.0,330.5 L 201.0,330.5 L 203.0,330.5 L 205.0,330.5 L 207.0,330.5 L 209.0,330.5 L 211.0,330.5 L 213.0,330.5 L 215.0,330.5 L 217.0,330.5 L 219.0,330.5 L 221.0,330.5 L 223.0,330.5 L 225.0,330.5 L 227.0,330.5 L 229.0,330.5 L 231.0,330.5 L 233.0,330.5 L 235.0,330.5 L 237.0,330.5 L 239.0,330.5 L 241.0,330.5 L 243.0,330.5 L 245.0,330.5 L 247.0,330.5 L 249.0,330.5 L 251.0,330.5 L 253.0,330.5 L 255.0,330.5 L 257.0,330.5 L 259.0,330.5 L 261.0,330.5 L 263.0,330.5 L 265.0,330.5 L 266.5,330.0 Z"/>
<path d="M 149.0,323.5 L 148.5,322.0 L 148.5,320.0 L 150.0,319.5 L 152.0,319.5 L 153.5,320.0 L 152.0,320.5 L 150.5,321.0 L 149.5,322.0 L 149.0,323.5 Z"/>
</g></svg>